<svg width="60" height="39" viewBox="0 0 60 39" fill="none" xmlns="http://www.w3.org/2000/svg">
<path d="M27.1299 10.9909V1.10156H31.3409C33.9108 1.10156 35.2887 2.48115 35.2887 4.37978C35.2887 6.27841 33.8953 7.64434 31.3099 7.64434H29.1425V10.9909H27.1299ZM29.1425 6.1828H31.0312C32.5484 6.1828 33.2296 5.43154 33.2296 4.37978C33.2296 3.31436 32.5484 2.59042 31.0312 2.59042H29.1425V6.1828Z" fill="white"/>
<path d="M18.6963 10.9909V1.10156H25.9881V2.59042H20.7089V5.29495H25.6011V6.78381H20.7089V9.48833H26.0191V10.9909H18.6963Z" fill="white"/>
<path d="M8.97559 2.59042V1.10156H17.9085V2.59042H14.4561V10.9909H12.4435V2.59042H8.97559Z" fill="white"/>
<path d="M6.50227 3.81962C6.40938 2.97275 5.58885 2.48102 4.38129 2.48102C3.1118 2.48102 2.33772 3.02739 2.33772 3.76499C2.33772 4.5982 3.32854 4.93968 4.25744 5.13091L5.31018 5.37678C6.9822 5.71826 8.59228 6.49684 8.59228 8.2179C8.59228 9.95262 7.04412 11.141 4.35033 11.141C1.73394 11.141 0.0928895 10.0346 0 8.08131H1.98164C2.07453 9.11941 3.06535 9.6248 4.33484 9.6248C5.66626 9.6248 6.57968 9.05111 6.57968 8.20424C6.57968 7.42566 5.75915 7.09784 4.55159 6.82466L3.2821 6.53781C1.43979 6.11438 0.29415 5.29482 0.29415 3.87426C0.29415 2.12588 2.05905 0.964844 4.41225 0.964844C6.79642 0.964844 8.4065 2.1532 8.43747 3.81962H6.50227Z" fill="white"/>
<path d="M59.9995 5.05872V38.9648H51.9845V11.7556H51.7722L42.9609 16.6261V10.3975L52.4622 5.05872H59.9995Z" fill="white"/>
</svg>
