<svg width="60" height="39" viewBox="0 0 60 39" fill="none" xmlns="http://www.w3.org/2000/svg">
<path d="M24.2646 10.9907V1.10144H28.0309C30.3293 1.10144 31.5617 2.48102 31.5617 4.37966C31.5617 6.27829 30.3155 7.64422 28.0032 7.64422H26.0647V10.9907H24.2646ZM26.0647 6.18268H27.7539C29.1109 6.18268 29.7201 5.43142 29.7201 4.37966C29.7201 3.31424 29.1109 2.5903 27.7539 2.5903H26.0647V6.18268Z" fill="white"/>
<path d="M16.7207 10.9909V1.10156H23.2423V2.59042H18.5207V5.29495H22.8962V6.78381H18.5207V9.48833H23.27V10.9909H16.7207Z" fill="white"/>
<path d="M8.02832 2.5903V1.10144H16.0177V2.5903H12.9299V10.9907H11.1299V2.5903H8.02832Z" fill="white"/>
<path d="M5.81546 3.81962C5.73239 2.97275 4.99853 2.48102 3.91851 2.48102C2.78311 2.48102 2.0908 3.02739 2.0908 3.76499C2.0908 4.5982 2.97696 4.93968 3.80774 5.13091L4.7493 5.37678C6.2447 5.71826 7.68472 6.49684 7.68472 8.2179C7.68472 9.95262 6.30009 11.141 3.89082 11.141C1.55079 11.141 0.0830781 10.0346 0 8.08131H1.77233C1.85541 9.11941 2.74158 9.6248 3.87698 9.6248C5.06776 9.6248 5.8847 9.05111 5.8847 8.20424C5.8847 7.42566 5.15084 7.09784 4.07082 6.82466L2.93542 6.53781C1.28771 6.11438 0.26308 5.29482 0.26308 3.87426C0.26308 2.12588 1.84156 0.964844 3.94621 0.964844C6.07854 0.964844 7.51856 2.1532 7.54626 3.81962H5.81546Z" fill="white"/>
<path d="M35.4088 38.9648L35.3613 33.8602L47.7044 22.6674C50.9325 19.6234 52.6416 17.7501 52.6416 15.0807C52.6416 12.0835 50.3154 10.2102 47.1822 10.2102C43.954 10.2102 41.8652 12.224 41.8652 15.4553H35.0765C35.029 8.80524 40.0137 4.59039 47.2771 4.59039C54.6355 4.59039 59.5252 8.71158 59.5252 14.6124C59.5252 18.4526 57.6263 21.6371 50.5528 27.9594L45.3307 32.9704V33.1577H59.9999V38.9648H35.4088Z" fill="white"/>
</svg>
