<svg width="60" height="39" viewBox="0 0 60 39" fill="none" xmlns="http://www.w3.org/2000/svg">
<path d="M23.9697 10.8687V1.09979H27.6903C29.9609 1.09979 31.1783 2.46258 31.1783 4.3381C31.1783 6.21362 29.9472 7.56292 27.6629 7.56292H25.7479V10.8687H23.9697ZM25.7479 6.11917H27.4167C28.7572 6.11917 29.359 5.37706 29.359 4.3381C29.359 3.28565 28.7572 2.57052 27.4167 2.57052H25.7479V6.11917Z" fill="white"/>
<path d="M16.5186 10.8687V1.09979H22.9611V2.57052H18.2967V5.24213H22.6191V6.71286H18.2967V9.38446H22.9884V10.8687H16.5186Z" fill="white"/>
<path d="M7.93066 2.57052V1.09979H15.8231V2.57052H12.7728V10.8687H10.9946V2.57052H7.93066Z" fill="white"/>
<path d="M5.74494 3.78487C5.66287 2.94831 4.93791 2.46256 3.87099 2.46256C2.74936 2.46256 2.06544 3.00228 2.06544 3.7309C2.06544 4.55397 2.94086 4.89129 3.76157 5.08019L4.6917 5.32307C6.16897 5.66039 7.59152 6.42949 7.59152 8.1296C7.59152 9.8432 6.22368 11.0171 3.84364 11.0171C1.53198 11.0171 0.0820705 9.92416 0 7.99467H1.75084C1.83291 9.02013 2.70833 9.51937 3.82996 9.51937C5.0063 9.51937 5.81333 8.95267 5.81333 8.11611C5.81333 7.34701 5.08837 7.02318 4.02146 6.75332L2.89983 6.46997C1.27209 6.05169 0.25989 5.24211 0.25989 3.83884C0.25989 2.11174 1.81923 0.964844 3.89835 0.964844C6.00483 0.964844 7.42738 2.13873 7.45474 3.78487H5.74494Z" fill="white"/>
<path d="M46.8685 38.9649C39.4118 38.9649 34.0655 34.8938 33.9248 29.0649H41.0532C41.1939 31.563 43.6326 33.2284 46.9154 33.2284C50.292 33.2284 52.7307 31.3317 52.6838 28.6485C52.7307 25.9191 50.2451 23.9761 46.2588 23.9761H43.1167V18.8411H46.2588C49.5885 18.8411 51.9334 17.0369 51.9334 14.4C51.9334 11.8556 49.9637 10.0976 46.9623 10.0976C43.9609 10.0976 41.4753 11.7631 41.3815 14.3075H34.6283C34.7221 8.52476 40.0215 4.54626 46.9623 4.54626C54.0438 4.54626 58.7804 8.66354 58.7335 13.9836C58.7804 17.7308 56.1073 20.414 52.3086 21.0616V21.3392C57.2797 21.9406 60.0467 24.9476 59.9998 29.1111C60.0467 34.8476 54.5128 38.9649 46.8685 38.9649Z" fill="white"/>
</svg>
