<svg width="48" height="48" viewBox="0 0 48 48" fill="none" xmlns="http://www.w3.org/2000/svg">
<rect width="48" height="48" rx="16" fill="url(#paint0_radial_105_228)"/>
<path d="M22.1682 28.2468H18.2804L23.1214 22.5258C23.4736 22.1094 23.553 21.5197 23.3238 21.0241C23.0946 20.5285 22.5951 20.2085 22.0505 20.2085H15.2423C14.4686 20.2085 13.8389 20.8399 13.8389 21.6157C13.8389 22.3915 14.4686 23.0229 15.2423 23.0229H19.0211L14.18 28.7438C13.8279 29.1603 13.7484 29.7499 13.9776 30.2455C14.2068 30.7411 14.7064 31.0612 15.2509 31.0612H22.1687C22.9425 31.0612 23.5722 30.4298 23.5722 29.654C23.5722 28.8782 22.9425 28.2468 22.1687 28.2468H22.1682Z" fill="white"/>
<path d="M33.537 28.9568L30.7898 25.4502L33.4967 22.1596C33.9938 21.5557 33.9024 20.663 33.2936 20.1704C32.6848 19.6778 31.7849 19.768 31.2883 20.3719L28.9954 23.1593L26.8327 20.3984C26.3507 19.7829 25.4532 19.6711 24.8327 20.1497C24.532 20.3815 24.3405 20.7156 24.2929 21.0901C24.2453 21.4646 24.3483 21.8353 24.5815 22.1336L27.1461 25.4074L24.2472 28.9308C23.7502 29.5347 23.8415 30.4274 24.4503 30.92C24.704 31.1253 25.0237 31.2386 25.3507 31.2386C25.7812 31.2386 26.1835 31.0492 26.4556 30.7185L28.9405 27.6983L31.2859 30.6925C31.558 31.0395 31.9686 31.2391 32.4122 31.2391C32.7314 31.2391 33.0337 31.1364 33.2858 30.9417C33.5866 30.7098 33.778 30.3758 33.8257 30.0013C33.8733 29.6268 33.7703 29.2561 33.537 28.9578V28.9568Z" fill="white"/>
<path d="M19.5419 14.3826C20.4725 12.7622 22.1393 11.7944 24.0006 11.7944C25.8619 11.7944 27.5287 12.7617 28.4594 14.3826L30.5814 18.0776L32.0926 15.0905L30.8663 12.9854C29.4333 10.4899 26.8667 9 24.0006 9C21.1345 9 18.5679 10.4899 17.1349 12.9854L15.0488 16.6182L18.2544 16.6171L19.5424 14.3826" fill="white"/>
<path d="M15.9405 36.1812C14.0792 36.1812 12.4124 35.2139 11.4817 33.593C10.5511 31.9726 10.5511 30.0376 11.4817 28.4172L13.2812 25.2838L10.0498 25.3036L9.07479 27.02C7.64174 29.5155 7.64174 32.4947 9.07479 34.9902C10.5078 37.4857 13.0744 38.9756 15.9405 38.9756L21.8497 38.9999L19.8839 36.1812H15.9405Z" fill="white"/>
<path d="M37.097 23.8363L35.5055 26.6533L36.5182 28.4172C37.4488 30.0376 37.4488 31.9726 36.5182 33.593C35.5875 35.2134 33.9207 36.1812 32.0594 36.1812H28.166L30.1521 38.9665L32.0594 38.9756C34.9255 38.9756 37.4921 37.4857 38.9251 34.9902C40.3582 32.4947 40.3582 29.5155 38.9251 27.02L37.0964 23.8363H37.097Z" fill="white"/>
<defs>
<radialGradient id="paint0_radial_105_228" cx="0" cy="0" r="1" gradientUnits="userSpaceOnUse" gradientTransform="translate(-3 48) rotate(-36.3408) scale(70.8758)">
<stop offset="0.306255" stop-color="#117079"/>
<stop offset="0.463464" stop-color="#008995"/>
<stop offset="1" stop-color="#14F18D"/>
</radialGradient>
</defs>
</svg>
