<svg width="100" height="100" viewBox="0 0 100 100" fill="none" xmlns="http://www.w3.org/2000/svg">
<rect width="100" height="100" rx="24" fill="url(#paint0_radial_105_227)"/>
<path d="M46.91 56.0779H40.3493L48.5184 46.543C49.1127 45.8489 49.2467 44.8662 48.86 44.0402C48.4732 43.2141 47.6302 42.6808 46.7113 42.6808H35.2228C33.9171 42.6808 32.8545 43.7331 32.8545 45.0261C32.8545 46.3191 33.9171 47.3715 35.2228 47.3715H41.5993L33.4302 56.9063C32.8359 57.6004 32.7019 58.5832 33.0887 59.4092C33.4754 60.2352 34.3184 60.7686 35.2373 60.7686H46.9108C48.2164 60.7686 49.279 59.7162 49.279 58.4232C49.279 57.1302 48.2164 56.0779 46.9108 56.0779H46.91Z" fill="white"/>
<path d="M66.092 57.2615L61.4561 51.4172L66.0239 45.9329C66.8627 44.9263 66.7085 43.4385 65.6812 42.6175C64.6538 41.7965 63.1353 41.9467 62.2973 42.9533L58.4281 47.599L54.7786 42.9975C53.9653 41.9716 52.4509 41.7852 51.4038 42.583C50.8963 42.9694 50.5732 43.5261 50.4929 44.1503C50.4125 44.7744 50.5864 45.3922 50.9799 45.8895L55.3075 51.3457L50.4158 57.2181C49.577 58.2246 49.7312 59.7124 50.7585 60.5334C51.1865 60.8756 51.726 61.0644 52.2779 61.0644C53.0043 61.0644 53.6832 60.7487 54.1424 60.1976L58.3355 55.164L62.2932 60.1543C62.7524 60.7327 63.4452 61.0652 64.1938 61.0652C64.7325 61.0652 65.2425 60.8941 65.6681 60.5696C66.1756 60.1832 66.4986 59.6265 66.579 59.0023C66.6593 58.3781 66.4855 57.7603 66.092 57.2631V57.2615Z" fill="white"/>
<path d="M42.4763 32.971C44.0468 30.2704 46.8595 28.6573 50.0003 28.6573C53.1411 28.6573 55.9538 30.2694 57.5243 32.971L61.1051 39.1293L63.6551 34.1509L61.5859 30.6423C59.1677 26.4831 54.8367 24 50.0003 24C45.1639 24 40.8329 26.4831 38.4147 30.6423L34.8945 36.697L40.3037 36.6952L42.4773 32.971" fill="white"/>
<path d="M36.3993 69.3021C33.2584 69.3021 30.4457 67.69 28.8753 64.9884C27.3049 62.2878 27.3049 59.0627 28.8753 56.3621L31.9118 51.1398L26.459 51.1727L24.8137 54.0334C22.3954 58.1926 22.3954 63.1579 24.8137 67.3171C27.2319 71.4763 31.5628 73.9594 36.3993 73.9594L46.3708 73.9999L43.0536 69.3021H36.3993Z" fill="white"/>
<path d="M72.101 48.7273L69.4153 53.4223L71.1242 56.3621C72.6946 59.0627 72.6946 62.2878 71.1242 64.9884C69.5538 67.6891 66.7411 69.3021 63.6002 69.3021H57.0303L60.3816 73.9444L63.6002 73.9594C68.4366 73.9594 72.7676 71.4763 75.1858 67.3171C77.604 63.1579 77.604 58.1926 75.1858 54.0334L72.1 48.7273H72.101Z" fill="white"/>
<defs>
<radialGradient id="paint0_radial_105_227" cx="0" cy="0" r="1" gradientUnits="userSpaceOnUse" gradientTransform="translate(-6.24999 100) rotate(-36.3408) scale(147.658)">
<stop offset="0.306255" stop-color="#117079"/>
<stop offset="0.463464" stop-color="#008995"/>
<stop offset="1" stop-color="#14F18D"/>
</radialGradient>
</defs>
</svg>
