<svg width="179" height="180" viewBox="0 0 179 180" fill="none" xmlns="http://www.w3.org/2000/svg">
<rect width="180" height="180" transform="translate(-1)" fill="url(#paint0_radial_105_123)"/>
<path d="M85.91 83.5779H79.3493L87.5184 74.043C88.1127 73.3489 88.2467 72.3662 87.86 71.5402C87.4732 70.7141 86.6302 70.1808 85.7113 70.1808H74.2228C72.9171 70.1808 71.8545 71.2331 71.8545 72.5261C71.8545 73.8191 72.9171 74.8715 74.2228 74.8715H80.5993L72.4302 84.4063C71.8359 85.1004 71.7019 86.0832 72.0887 86.9092C72.4754 87.7352 73.3184 88.2686 74.2373 88.2686H85.9108C87.2164 88.2686 88.279 87.2162 88.279 85.9232C88.279 84.6302 87.2164 83.5779 85.9108 83.5779H85.91Z" fill="white"/>
<path d="M105.092 84.7615L100.456 78.9172L105.024 73.4329C105.863 72.4263 105.709 70.9385 104.681 70.1175C103.654 69.2965 102.135 69.4467 101.297 70.4533L97.4281 75.099L93.7786 70.4975C92.9653 69.4716 91.4509 69.2852 90.4038 70.083C89.8963 70.4694 89.5732 71.0261 89.4929 71.6503C89.4125 72.2744 89.5864 72.8922 89.9799 73.3895L94.3075 78.8457L89.4158 84.7181C88.577 85.7246 88.7312 87.2124 89.7585 88.0334C90.1865 88.3756 90.726 88.5644 91.2779 88.5644C92.0043 88.5644 92.6832 88.2487 93.1424 87.6976L97.3355 82.664L101.293 87.6543C101.752 88.2327 102.445 88.5652 103.194 88.5652C103.733 88.5652 104.243 88.3941 104.668 88.0696C105.176 87.6832 105.499 87.1265 105.579 86.5023C105.659 85.8781 105.486 85.2603 105.092 84.7631V84.7615Z" fill="white"/>
<path d="M81.4763 60.471C83.0468 57.7704 85.8595 56.1573 89.0003 56.1573C92.1411 56.1573 94.9538 57.7694 96.5243 60.471L100.105 66.6293L102.655 61.6509L100.586 58.1423C98.1677 53.9831 93.8367 51.5 89.0003 51.5C84.1639 51.5 79.8329 53.9831 77.4147 58.1423L73.8945 64.197L79.3037 64.1952L81.4773 60.471" fill="white"/>
<path d="M75.3993 96.8021C72.2584 96.8021 69.4457 95.19 67.8753 92.4884C66.3049 89.7878 66.3049 86.5627 67.8753 83.8621L70.9118 78.6398L65.459 78.6727L63.8137 81.5334C61.3954 85.6926 61.3954 90.6579 63.8137 94.8171C66.2319 98.9763 70.5628 101.459 75.3993 101.459L85.3708 101.5L82.0536 96.8021H75.3993Z" fill="white"/>
<path d="M111.101 76.2273L108.415 80.9223L110.124 83.8621C111.695 86.5627 111.695 89.7878 110.124 92.4884C108.554 95.1891 105.741 96.8021 102.6 96.8021H96.0303L99.3816 101.444L102.6 101.459C107.437 101.459 111.768 98.9763 114.186 94.8171C116.604 90.6579 116.604 85.6926 114.186 81.5334L111.1 76.2273H111.101Z" fill="white"/>
<path d="M37.6177 115.677V113.702H25.5V116.504H33.0394L25.5106 126.323V128.298H37.6283V125.496H30.0889L37.6177 115.677Z" fill="white"/>
<path d="M39.8857 128.298H50.5657V125.496H43.5059V122.391H50.0122V119.598H43.5059V116.504H50.5657V113.702H39.8857V128.298Z" fill="white"/>
<path d="M136.421 113.702H132.801V128.299H136.421V113.702Z" fill="white"/>
<path d="M147.698 120.999L152.351 113.702H148.283L145.386 118.389H145.259L142.384 113.702H138.284L142.959 120.999L138.178 128.298H142.309L145.259 123.581H145.386L148.325 128.298H152.5L147.698 120.999Z" fill="white"/>
<path d="M62.1143 122.714C62.9762 122.344 63.6365 121.803 64.095 121.09C64.5524 120.378 64.7822 119.532 64.7822 118.55C64.7822 117.569 64.5571 116.704 64.1056 115.975C63.6553 115.245 63.0091 114.685 62.1671 114.292C61.3262 113.899 60.3271 113.702 59.1696 113.702H52.8662V128.299H56.4864V123.269H58.4988L61.3204 128.299H65.3135L62.0955 122.721C62.0955 122.721 62.1073 122.717 62.1131 122.715L62.1143 122.714ZM56.4876 116.484H58.4038C58.9784 116.484 59.4593 116.562 59.8463 116.716C60.2333 116.871 60.5253 117.099 60.7246 117.401C60.9228 117.703 61.0225 118.086 61.0225 118.55C61.0225 119.014 60.9228 119.372 60.7246 119.664C60.5253 119.956 60.2368 120.175 59.8568 120.319C59.4768 120.463 58.996 120.535 58.4144 120.535H56.4876V116.484Z" fill="white"/>
<path d="M77.1111 114.377C76.0041 113.792 74.7504 113.5 73.3526 113.5C71.9547 113.5 70.7104 113.792 69.5987 114.377C68.4881 114.962 67.6144 115.818 66.9788 116.947C66.3432 118.076 66.0254 119.427 66.0254 120.999C66.0254 122.571 66.3432 123.886 66.9788 125.022C67.6144 126.157 68.4869 127.021 69.5987 127.613C70.7092 128.205 71.9605 128.5 73.3526 128.5C74.7446 128.5 76.0041 128.205 77.1111 127.613C78.2182 127.021 79.0919 126.161 79.731 125.033C80.3701 123.904 80.6891 122.559 80.6891 121.001C80.6891 119.442 80.3701 118.077 79.731 116.948C79.0919 115.819 78.2194 114.962 77.1111 114.378V114.377ZM76.5517 123.444C76.2644 124.112 75.8493 124.62 75.3063 124.966C74.7633 125.313 74.1113 125.486 73.3526 125.486C72.5938 125.486 71.9523 125.313 71.4094 124.966C70.8664 124.62 70.4512 124.112 70.1639 123.444C69.8766 122.776 69.7324 121.961 69.7324 120.999C69.7324 120.038 69.8766 119.224 70.1639 118.555C70.4512 117.886 70.8664 117.379 71.4094 117.033C71.9523 116.686 72.5997 116.513 73.3526 116.513C74.1054 116.513 74.7633 116.686 75.3063 117.033C75.8493 117.379 76.2644 117.886 76.5517 118.555C76.8391 119.223 76.9833 120.038 76.9833 120.999C76.9833 121.961 76.8391 122.776 76.5517 123.444Z" fill="white"/>
<path d="M91.6988 122.259H91.5604L85.3849 113.702H82.2432V128.298H85.8634V119.729H85.9806L92.2207 128.298H95.3085V113.702H91.6988V122.259Z" fill="white"/>
<path d="M107.842 114.377C106.735 113.792 105.481 113.5 104.083 113.5C102.685 113.5 101.441 113.792 100.329 114.377C99.2186 114.962 98.3449 115.818 97.7093 116.947C97.0737 118.076 96.7559 119.427 96.7559 120.999C96.7559 122.571 97.0737 123.886 97.7093 125.022C98.3449 126.157 99.2174 127.021 100.329 127.613C101.44 128.205 102.691 128.5 104.083 128.5C105.475 128.5 106.735 128.205 107.842 127.613C108.949 127.021 109.822 126.161 110.461 125.033C111.101 123.904 111.42 122.559 111.42 121.001C111.42 119.442 111.101 118.077 110.461 116.948C109.822 115.819 108.95 114.962 107.842 114.378V114.377ZM107.282 123.444C106.995 124.112 106.58 124.62 106.037 124.966C105.494 125.313 104.842 125.486 104.083 125.486C103.324 125.486 102.683 125.313 102.14 124.966C101.597 124.62 101.182 124.112 100.894 123.444C100.607 122.776 100.463 121.961 100.463 120.999C100.463 120.038 100.607 119.224 100.894 118.555C101.182 117.886 101.597 117.379 102.14 117.033C102.683 116.686 103.33 116.513 104.083 116.513C104.836 116.513 105.494 116.686 106.037 117.033C106.58 117.379 106.995 117.886 107.282 118.555C107.57 119.223 107.714 120.038 107.714 120.999C107.714 121.961 107.57 122.776 107.282 123.444Z" fill="white"/>
<path d="M121.981 122.885H121.801L117.808 113.702H113.324V128.298H116.86V119.185H116.988L120.746 128.208H123.025L126.795 119.215H126.923V128.298H130.458V113.702H125.953L121.981 122.885Z" fill="white"/>
<defs>
<radialGradient id="paint0_radial_105_123" cx="0" cy="0" r="1" gradientUnits="userSpaceOnUse" gradientTransform="translate(-11.25 180) rotate(-36.3408) scale(265.784)">
<stop offset="0.306255" stop-color="#117079"/>
<stop offset="0.463464" stop-color="#008995"/>
<stop offset="1" stop-color="#14F18D"/>
</radialGradient>
</defs>
</svg>
