<svg width="127" height="77" viewBox="0 0 127 77" fill="none" xmlns="http://www.w3.org/2000/svg">
<path d="M60.41 32.0779H53.8493L62.0184 22.543C62.6127 21.8489 62.7467 20.8662 62.36 20.0402C61.9732 19.2141 61.1302 18.6808 60.2113 18.6808H48.7228C47.4171 18.6808 46.3545 19.7331 46.3545 21.0261C46.3545 22.3191 47.4171 23.3715 48.7228 23.3715H55.0993L46.9302 32.9063C46.3359 33.6004 46.2019 34.5832 46.5887 35.4092C46.9754 36.2352 47.8184 36.7686 48.7373 36.7686H60.4108C61.7164 36.7686 62.779 35.7162 62.779 34.4232C62.779 33.1302 61.7164 32.0779 60.4108 32.0779H60.41Z" fill="white"/>
<path d="M79.592 33.2615L74.9561 27.4172L79.5239 21.9329C80.3627 20.9263 80.2085 19.4385 79.1812 18.6175C78.1538 17.7965 76.6353 17.9467 75.7973 18.9533L71.9281 23.599L68.2786 18.9975C67.4653 17.9716 65.9509 17.7852 64.9038 18.583C64.3963 18.9694 64.0732 19.5261 63.9929 20.1503C63.9125 20.7744 64.0864 21.3922 64.4799 21.8895L68.8075 27.3457L63.9158 33.2181C63.077 34.2246 63.2312 35.7124 64.2585 36.5334C64.6865 36.8756 65.226 37.0644 65.7779 37.0644C66.5043 37.0644 67.1832 36.7487 67.6424 36.1976L71.8355 31.164L75.7932 36.1543C76.2524 36.7327 76.9452 37.0652 77.6938 37.0652C78.2325 37.0652 78.7425 36.8941 79.1681 36.5696C79.6756 36.1832 79.9986 35.6265 80.079 35.0023C80.1593 34.3781 79.9855 33.7603 79.592 33.2631V33.2615Z" fill="white"/>
<path d="M55.9763 8.97099C57.5468 6.27037 60.3595 4.65734 63.5003 4.65734C66.6411 4.65734 69.4538 6.26943 71.0243 8.97099L74.6051 15.1293L77.1551 10.1509L75.0859 6.64231C72.6677 2.4831 68.3367 0 63.5003 0C58.6639 0 54.3329 2.4831 51.9147 6.64231L48.3945 12.697L53.8037 12.6952L55.9773 8.97099" fill="white"/>
<path d="M49.8993 45.3021C46.7584 45.3021 43.9457 43.69 42.3753 40.9884C40.8049 38.2878 40.8049 35.0627 42.3753 32.3621L45.4118 27.1398L39.959 27.1727L38.3137 30.0334C35.8954 34.1926 35.8954 39.1579 38.3137 43.3171C40.7319 47.4763 45.0628 49.9594 49.8993 49.9594L59.8708 49.9999L56.5536 45.3021H49.8993Z" fill="white"/>
<path d="M85.601 24.7273L82.9153 29.4223L84.6242 32.3621C86.1946 35.0627 86.1946 38.2878 84.6242 40.9884C83.0538 43.6891 80.2411 45.3021 77.1002 45.3021H70.5303L73.8816 49.9444L77.1002 49.9594C81.9366 49.9594 86.2676 47.4763 88.6858 43.3171C91.104 39.1579 91.104 34.1926 88.6858 30.0334L85.6 24.7273H85.601Z" fill="white"/>
<path d="M12.1177 64.1771V62.202H0V65.0042H7.53943L0.0105545 74.8229V76.7979H12.1283V73.9958H4.58886L12.1177 64.1771Z" fill="white"/>
<path d="M14.3857 76.7979H25.0657V73.9958H18.0059V70.8905H24.5122V68.0983H18.0059V65.0042H25.0657V62.202H14.3857V76.7979Z" fill="white"/>
<path d="M110.921 62.202H107.301V76.799H110.921V62.202Z" fill="white"/>
<path d="M122.198 69.4994L126.851 62.202H122.783L119.886 66.8893H119.759L116.884 62.202H112.784L117.459 69.4994L112.678 76.7979H116.809L119.759 72.0806H119.886L122.825 76.7979H127L122.198 69.4994Z" fill="white"/>
<path d="M36.6143 71.2136C37.4762 70.8439 38.1365 70.3032 38.595 69.5905C39.0524 68.8777 39.2822 68.0317 39.2822 67.0503C39.2822 66.0689 39.0571 65.204 38.6056 64.4746C38.1553 63.7452 37.5091 63.1846 36.6671 62.7915C35.8262 62.3985 34.8271 62.202 33.6696 62.202H27.3662V76.799H30.9864V71.7687H32.9988L35.8204 76.799H39.8135L36.5955 71.2213C36.5955 71.2213 36.6073 71.2169 36.6131 71.2147L36.6143 71.2136ZM30.9876 64.9842H32.9038C33.4784 64.9842 33.9593 65.0619 34.3463 65.2162C34.7333 65.3706 35.0253 65.5993 35.2246 65.9012C35.4228 66.2032 35.5225 66.5862 35.5225 67.0503C35.5225 67.5144 35.4228 67.8719 35.2246 68.1638C35.0253 68.4558 34.7368 68.6745 34.3568 68.8189C33.9768 68.9632 33.496 69.0353 32.9144 69.0353H30.9876V64.9842Z" fill="white"/>
<path d="M51.6111 62.8771C50.5041 62.292 49.2504 62 47.8526 62C46.4547 62 45.2104 62.292 44.0987 62.8771C42.9881 63.4621 42.1144 64.3181 41.4788 65.4472C40.8432 66.5763 40.5254 67.9274 40.5254 69.4994C40.5254 71.0715 40.8432 72.386 41.4788 73.5217C42.1144 74.6575 42.9869 75.5212 44.0987 76.1129C45.2092 76.7047 46.4605 77 47.8526 77C49.2446 77 50.5041 76.7047 51.6111 76.1129C52.7182 75.5212 53.5919 74.6608 54.231 73.5328C54.8701 72.4037 55.1891 71.0593 55.1891 69.5006C55.1891 67.9418 54.8701 66.5774 54.231 65.4483C53.5919 64.3192 52.7194 63.4621 51.6111 62.8782V62.8771ZM51.0517 71.9441C50.7644 72.6125 50.3493 73.1198 49.8063 73.4662C49.2633 73.8126 48.6113 73.9858 47.8526 73.9858C47.0938 73.9858 46.4523 73.8126 45.9094 73.4662C45.3664 73.1198 44.9512 72.6125 44.6639 71.9441C44.3766 71.2758 44.2324 70.4609 44.2324 69.4994C44.2324 68.538 44.3766 67.7242 44.6639 67.0548C44.9512 66.3864 45.3664 65.8791 45.9094 65.5327C46.4523 65.1863 47.0997 65.0131 47.8526 65.0131C48.6054 65.0131 49.2633 65.1863 49.8063 65.5327C50.3493 65.8791 50.7644 66.3864 51.0517 67.0548C51.3391 67.7231 51.4833 68.538 51.4833 69.4994C51.4833 70.4609 51.3391 71.2758 51.0517 71.9441Z" fill="white"/>
<path d="M66.1988 70.7595H66.0604L59.8849 62.202H56.7432V76.7979H60.3634V68.2293H60.4806L66.7207 76.7979H69.8085V62.202H66.1988V70.7595Z" fill="white"/>
<path d="M82.3416 62.8771C81.2346 62.292 79.9809 62 78.583 62C77.1851 62 75.9409 62.292 74.8291 62.8771C73.7186 63.4621 72.8449 64.3181 72.2093 65.4472C71.5737 66.5763 71.2559 67.9274 71.2559 69.4994C71.2559 71.0715 71.5737 72.386 72.2093 73.5217C72.8449 74.6575 73.7174 75.5212 74.8291 76.1129C75.9397 76.7047 77.191 77 78.583 77C79.9751 77 81.2346 76.7047 82.3416 76.1129C83.4487 75.5212 84.3223 74.6608 84.9615 73.5328C85.6006 72.4037 85.9196 71.0593 85.9196 69.5006C85.9196 67.9418 85.6006 66.5774 84.9615 65.4483C84.3223 64.3192 83.4498 63.4621 82.3416 62.8782V62.8771ZM81.7822 71.9441C81.4949 72.6125 81.0798 73.1198 80.5368 73.4662C79.9938 73.8126 79.3418 73.9858 78.583 73.9858C77.8243 73.9858 77.1828 73.8126 76.6398 73.4662C76.0969 73.1198 75.6817 72.6125 75.3944 71.9441C75.1071 71.2758 74.9628 70.4609 74.9628 69.4994C74.9628 68.538 75.1071 67.7242 75.3944 67.0548C75.6817 66.3864 76.0969 65.8791 76.6398 65.5327C77.1828 65.1863 77.8301 65.0131 78.583 65.0131C79.3359 65.0131 79.9938 65.1863 80.5368 65.5327C81.0798 65.8791 81.4949 66.3864 81.7822 67.0548C82.0695 67.7231 82.2138 68.538 82.2138 69.4994C82.2138 70.4609 82.0695 71.2758 81.7822 71.9441Z" fill="white"/>
<path d="M96.4813 71.3845H96.3007L92.3075 62.202H87.8242V76.7979H91.36V67.6853H91.4878L95.2464 76.708H97.525L101.295 67.7153H101.423V76.7979H104.958V62.202H100.453L96.4813 71.3845Z" fill="white"/>
</svg>
