<svg width="205" height="102" viewBox="0 0 205 102" fill="none" xmlns="http://www.w3.org/2000/svg">
<path d="M97.91 32.0779H91.3493L99.5184 22.543C100.113 21.8489 100.247 20.8662 99.86 20.0402C99.4732 19.2141 98.6302 18.6808 97.7113 18.6808H86.2228C84.9171 18.6808 83.8545 19.7331 83.8545 21.0261C83.8545 22.3191 84.9171 23.3715 86.2228 23.3715H92.5993L84.4302 32.9063C83.8359 33.6004 83.7019 34.5832 84.0887 35.4092C84.4754 36.2352 85.3184 36.7686 86.2373 36.7686H97.9108C99.2164 36.7686 100.279 35.7162 100.279 34.4232C100.279 33.1302 99.2164 32.0779 97.9108 32.0779H97.91Z" fill="white"/>
<path d="M117.092 33.2615L112.456 27.4172L117.024 21.9329C117.863 20.9263 117.709 19.4385 116.681 18.6175C115.654 17.7965 114.135 17.9467 113.297 18.9533L109.428 23.599L105.779 18.9975C104.965 17.9716 103.451 17.7852 102.404 18.583C101.896 18.9694 101.573 19.5261 101.493 20.1503C101.413 20.7744 101.586 21.3922 101.98 21.8895L106.307 27.3457L101.416 33.2181C100.577 34.2246 100.731 35.7124 101.759 36.5334C102.187 36.8756 102.726 37.0644 103.278 37.0644C104.004 37.0644 104.683 36.7487 105.142 36.1976L109.335 31.164L113.293 36.1543C113.752 36.7327 114.445 37.0652 115.194 37.0652C115.733 37.0652 116.243 36.8941 116.668 36.5696C117.176 36.1832 117.499 35.6265 117.579 35.0023C117.659 34.3781 117.486 33.7603 117.092 33.2631V33.2615Z" fill="white"/>
<path d="M93.4763 8.97099C95.0468 6.27037 97.8595 4.65734 101 4.65734C104.141 4.65734 106.954 6.26943 108.524 8.97099L112.105 15.1293L114.655 10.1509L112.586 6.64231C110.168 2.4831 105.837 0 101 0C96.1639 0 91.8329 2.4831 89.4147 6.64231L85.8945 12.697L91.3037 12.6952L93.4773 8.97099" fill="white"/>
<path d="M87.3993 45.3021C84.2584 45.3021 81.4457 43.69 79.8753 40.9884C78.3049 38.2878 78.3049 35.0627 79.8753 32.3621L82.9118 27.1398L77.459 27.1727L75.8137 30.0334C73.3954 34.1926 73.3954 39.1579 75.8137 43.3171C78.2319 47.4763 82.5628 49.9594 87.3993 49.9594L97.3708 49.9999L94.0536 45.3021H87.3993Z" fill="white"/>
<path d="M123.101 24.7273L120.415 29.4223L122.124 32.3621C123.695 35.0627 123.695 38.2878 122.124 40.9884C120.554 43.6891 117.741 45.3021 114.6 45.3021H108.03L111.382 49.9444L114.6 49.9594C119.437 49.9594 123.768 47.4763 126.186 43.3171C128.604 39.1579 128.604 34.1926 126.186 30.0334L123.1 24.7273H123.101Z" fill="white"/>
<path d="M50.1177 64.1771V62.202H38V65.0042H45.5394L38.0106 74.8229V76.7979H50.1283V73.9958H42.5889L50.1177 64.1771Z" fill="white"/>
<path d="M52.3857 76.7979H63.0657V73.9958H56.0059V70.8905H62.5122V68.0983H56.0059V65.0042H63.0657V62.202H52.3857V76.7979Z" fill="white"/>
<path d="M148.921 62.202H145.301V76.799H148.921V62.202Z" fill="white"/>
<path d="M160.198 69.4994L164.851 62.202H160.783L157.886 66.8893H157.759L154.884 62.202H150.784L155.459 69.4994L150.678 76.7979H154.809L157.759 72.0806H157.886L160.825 76.7979H165L160.198 69.4994Z" fill="white"/>
<path d="M74.6143 71.2136C75.4762 70.8439 76.1365 70.3032 76.595 69.5905C77.0524 68.8777 77.2822 68.0317 77.2822 67.0503C77.2822 66.0689 77.0571 65.204 76.6056 64.4746C76.1553 63.7452 75.5091 63.1846 74.6671 62.7915C73.8262 62.3985 72.8271 62.202 71.6696 62.202H65.3662V76.799H68.9864V71.7687H70.9988L73.8204 76.799H77.8135L74.5955 71.2213C74.5955 71.2213 74.6073 71.2169 74.6131 71.2147L74.6143 71.2136ZM68.9876 64.9842H70.9038C71.4784 64.9842 71.9593 65.0619 72.3463 65.2162C72.7333 65.3706 73.0253 65.5993 73.2246 65.9012C73.4228 66.2032 73.5225 66.5862 73.5225 67.0503C73.5225 67.5144 73.4228 67.8719 73.2246 68.1638C73.0253 68.4558 72.7368 68.6745 72.3568 68.8189C71.9768 68.9632 71.496 69.0353 70.9144 69.0353H68.9876V64.9842Z" fill="white"/>
<path d="M89.6111 62.8771C88.5041 62.292 87.2504 62 85.8526 62C84.4547 62 83.2104 62.292 82.0987 62.8771C80.9881 63.4621 80.1144 64.3181 79.4788 65.4472C78.8432 66.5763 78.5254 67.9274 78.5254 69.4994C78.5254 71.0715 78.8432 72.386 79.4788 73.5217C80.1144 74.6575 80.9869 75.5212 82.0987 76.1129C83.2092 76.7047 84.4605 77 85.8526 77C87.2446 77 88.5041 76.7047 89.6111 76.1129C90.7182 75.5212 91.5919 74.6608 92.231 73.5328C92.8701 72.4037 93.1891 71.0593 93.1891 69.5006C93.1891 67.9418 92.8701 66.5774 92.231 65.4483C91.5919 64.3192 90.7194 63.4621 89.6111 62.8782V62.8771ZM89.0517 71.9441C88.7644 72.6125 88.3493 73.1198 87.8063 73.4662C87.2633 73.8126 86.6113 73.9858 85.8526 73.9858C85.0938 73.9858 84.4523 73.8126 83.9094 73.4662C83.3664 73.1198 82.9512 72.6125 82.6639 71.9441C82.3766 71.2758 82.2324 70.4609 82.2324 69.4994C82.2324 68.538 82.3766 67.7242 82.6639 67.0548C82.9512 66.3864 83.3664 65.8791 83.9094 65.5327C84.4523 65.1863 85.0997 65.0131 85.8526 65.0131C86.6054 65.0131 87.2633 65.1863 87.8063 65.5327C88.3493 65.8791 88.7644 66.3864 89.0517 67.0548C89.3391 67.7231 89.4833 68.538 89.4833 69.4994C89.4833 70.4609 89.3391 71.2758 89.0517 71.9441Z" fill="white"/>
<path d="M104.199 70.7595H104.06L97.8849 62.202H94.7432V76.7979H98.3634V68.2293H98.4806L104.721 76.7979H107.808V62.202H104.199V70.7595Z" fill="white"/>
<path d="M120.342 62.8771C119.235 62.292 117.981 62 116.583 62C115.185 62 113.941 62.292 112.829 62.8771C111.719 63.4621 110.845 64.3181 110.209 65.4472C109.574 66.5763 109.256 67.9274 109.256 69.4994C109.256 71.0715 109.574 72.386 110.209 73.5217C110.845 74.6575 111.717 75.5212 112.829 76.1129C113.94 76.7047 115.191 77 116.583 77C117.975 77 119.235 76.7047 120.342 76.1129C121.449 75.5212 122.322 74.6608 122.961 73.5328C123.601 72.4037 123.92 71.0593 123.92 69.5006C123.92 67.9418 123.601 66.5774 122.961 65.4483C122.322 64.3192 121.45 63.4621 120.342 62.8782V62.8771ZM119.782 71.9441C119.495 72.6125 119.08 73.1198 118.537 73.4662C117.994 73.8126 117.342 73.9858 116.583 73.9858C115.824 73.9858 115.183 73.8126 114.64 73.4662C114.097 73.1198 113.682 72.6125 113.394 71.9441C113.107 71.2758 112.963 70.4609 112.963 69.4994C112.963 68.538 113.107 67.7242 113.394 67.0548C113.682 66.3864 114.097 65.8791 114.64 65.5327C115.183 65.1863 115.83 65.0131 116.583 65.0131C117.336 65.0131 117.994 65.1863 118.537 65.5327C119.08 65.8791 119.495 66.3864 119.782 67.0548C120.07 67.7231 120.214 68.538 120.214 69.4994C120.214 70.4609 120.07 71.2758 119.782 71.9441Z" fill="white"/>
<path d="M134.481 71.3845H134.301L130.308 62.202H125.824V76.7979H129.36V67.6853H129.488L133.246 76.708H135.525L139.295 67.7153H139.423V76.7979H142.958V62.202H138.453L134.481 71.3845Z" fill="white"/>
<path d="M4.24336 91.2529C4.24336 91.7793 4.35974 92.3039 4.59248 92.8267C4.82881 93.3494 5.14392 93.8149 5.5378 94.2231C5.93526 94.6278 6.36673 94.9303 6.83223 95.1309L6.35957 95.7969C5.7974 95.5426 5.29073 95.1559 4.83955 94.6367C4.39196 94.1175 4.05716 93.5285 3.83516 92.8696C3.61315 93.5679 3.27657 94.2017 2.82539 94.771C2.3778 95.3368 1.88008 95.7575 1.33223 96.0332L0.827347 95.3672C1.2821 95.1488 1.70463 94.8193 2.09492 94.3789C2.48881 93.9385 2.80391 93.4425 3.04024 92.8911C3.27657 92.3361 3.39473 91.79 3.39473 91.2529V90.0068H1.13887V89.3086H6.52071V90.0068H4.24336V91.2529ZM7.85274 88.3203H8.70137V97.8701H7.85274V88.3203ZM17.7012 97.8701H16.8525V95.1523H11.2773V94.4756H17.7012V97.8701ZM9.93457 91.1455C9.93457 90.7087 10.0402 90.3184 10.2515 89.9746C10.4663 89.6273 10.7617 89.3569 11.1377 89.1636C11.5137 88.9666 11.9362 88.8682 12.4053 88.8682C12.8171 88.8682 13.193 88.9434 13.5332 89.0938C13.877 89.2441 14.1616 89.4554 14.3872 89.7275H16.8525V88.3203H17.7012V93.9492H16.8525V92.5742H14.3926C14.167 92.8499 13.8823 93.063 13.5386 93.2134C13.1948 93.3602 12.8117 93.4336 12.3892 93.4336C11.9237 93.4336 11.5029 93.3369 11.127 93.1436C10.7546 92.9502 10.4627 92.6799 10.2515 92.3325C10.0402 91.9852 9.93457 91.5895 9.93457 91.1455ZM10.7402 91.1455C10.7402 91.4499 10.8119 91.722 10.9551 91.9619C11.0983 92.2018 11.297 92.3898 11.5513 92.5259C11.8055 92.6584 12.0938 92.7246 12.416 92.7246C12.7275 92.7246 13.0086 92.6584 13.2593 92.5259C13.5099 92.3898 13.7069 92.2018 13.8501 91.9619C13.9969 91.722 14.0703 91.4499 14.0703 91.1455C14.0703 90.8519 13.9969 90.5869 13.8501 90.3506C13.7069 90.1107 13.5081 89.9245 13.2539 89.792C13.0033 89.6559 12.724 89.5879 12.416 89.5879C12.0938 89.5879 11.8055 89.6559 11.5513 89.792C11.297 89.9245 11.0983 90.1089 10.9551 90.3452C10.8119 90.5815 10.7402 90.8483 10.7402 91.1455ZM16.8525 91.876V90.4258H14.7686C14.8473 90.6621 14.8867 90.902 14.8867 91.1455C14.8867 91.389 14.8491 91.6325 14.7739 91.876H16.8525ZM23.0594 94.3574C23.7397 94.3574 24.3305 94.4272 24.8318 94.5669C25.3367 94.703 25.7252 94.9035 25.9974 95.1685C26.2731 95.4299 26.4109 95.7432 26.4109 96.1084C26.4109 96.4701 26.2731 96.7816 25.9974 97.043C25.7252 97.3044 25.3367 97.5031 24.8318 97.6392C24.3305 97.7788 23.7397 97.8486 23.0594 97.8486C22.379 97.8486 21.7864 97.7788 21.2815 97.6392C20.7802 97.5031 20.3935 97.3044 20.1214 97.043C19.8528 96.7816 19.7186 96.4701 19.7186 96.1084C19.7186 95.7432 19.8528 95.4299 20.1214 95.1685C20.3935 94.9035 20.7802 94.703 21.2815 94.5669C21.7864 94.4272 22.379 94.3574 23.0594 94.3574ZM18.7518 92.7783H22.3504V90.9307H23.1775V92.7783H27.4422V93.4658H18.7518V92.7783ZM19.783 88.8145H26.3357V89.6201C26.3322 90.1465 26.3161 90.5923 26.2874 90.9575C26.2588 91.3192 26.1854 91.7184 26.0672 92.1553L25.24 92.0586C25.3546 91.6217 25.4262 91.2297 25.4549 90.8823C25.4835 90.5314 25.4979 90.1107 25.4979 89.6201V89.502H19.783V88.8145ZM20.5564 96.1084C20.5564 96.3268 20.6585 96.5184 20.8626 96.6831C21.0667 96.8442 21.3567 96.9678 21.7327 97.0537C22.1123 97.1396 22.5545 97.1826 23.0594 97.1826C23.5643 97.1826 24.0047 97.1396 24.3807 97.0537C24.7602 96.9678 25.0521 96.8442 25.2562 96.6831C25.4638 96.5184 25.5695 96.3268 25.573 96.1084C25.5695 95.8828 25.4638 95.6877 25.2562 95.5229C25.0521 95.3582 24.7602 95.2311 24.3807 95.1416C24.0047 95.0485 23.5643 95.002 23.0594 95.002C22.5545 95.002 22.1123 95.0485 21.7327 95.1416C21.3567 95.2311 21.0667 95.3582 20.8626 95.5229C20.6585 95.6877 20.5564 95.8828 20.5564 96.1084ZM36.4098 93.7236H27.6979V93.0469H31.6402V91.9297H28.8043V88.7715H35.3248V89.4482H29.6314V91.2422H35.3893V91.9297H32.4566V93.0469H36.4098V93.7236ZM28.7506 96.1406C28.7506 95.779 28.8813 95.471 29.1427 95.2168C29.4041 94.959 29.7818 94.762 30.276 94.626C30.7701 94.4899 31.3609 94.4219 32.0484 94.4219C32.7288 94.4219 33.3142 94.4899 33.8048 94.626C34.2953 94.762 34.6713 94.959 34.9327 95.2168C35.1977 95.471 35.332 95.779 35.3356 96.1406C35.332 96.5059 35.1995 96.8156 34.9381 97.0698C34.6767 97.3276 34.2989 97.5246 33.8048 97.6606C33.3142 97.7967 32.7288 97.8665 32.0484 97.8701C31.3609 97.8665 30.7701 97.7967 30.276 97.6606C29.7818 97.5246 29.4041 97.3276 29.1427 97.0698C28.8813 96.812 28.7506 96.5023 28.7506 96.1406ZM29.61 96.1406C29.6064 96.359 29.6995 96.5488 29.8893 96.71C30.0826 96.8675 30.3601 96.9875 30.7218 97.0698C31.0834 97.1522 31.5149 97.1934 32.0162 97.1934C32.7897 97.1934 33.393 97.1021 33.8263 96.9194C34.2631 96.7368 34.4833 96.4772 34.4869 96.1406C34.4869 95.9222 34.3884 95.7342 34.1915 95.5767C33.9946 95.4191 33.7135 95.2992 33.3482 95.2168C32.983 95.1309 32.5497 95.0879 32.0484 95.0879C31.54 95.0879 31.1013 95.1309 30.7325 95.2168C30.3673 95.2992 30.088 95.4191 29.8946 95.5767C29.7013 95.7342 29.6064 95.9222 29.61 96.1406ZM39.4477 91.2637C39.4512 91.7793 39.5354 92.286 39.7001 92.7837C39.8684 93.2778 40.1101 93.7254 40.4252 94.1265C40.7403 94.5275 41.1091 94.8408 41.5316 95.0664L41.0482 95.7002C40.5827 95.446 40.1799 95.0879 39.8397 94.626C39.4996 94.1605 39.24 93.6323 39.0609 93.0415C38.8855 93.6717 38.6277 94.2393 38.2875 94.7441C37.9509 95.2454 37.5499 95.6357 37.0844 95.915L36.5795 95.2705C37.002 95.027 37.369 94.6922 37.6806 94.2661C37.9921 93.84 38.2302 93.3656 38.3949 92.8428C38.5632 92.32 38.6492 91.7936 38.6527 91.2637V90.791H36.8373V90.0928H38.6527V88.6748H39.4584V90.0928H41.2416V90.791H39.4477V91.2637ZM40.5863 92.0908H42.0902V88.5566H42.8852V97.376H42.0902V92.8105H40.5863V92.0908ZM44.0131 88.3203H44.8188V97.8701H44.0131V88.3203ZM55.7178 97.8701H54.8691V88.3203H55.7178V97.8701ZM47.9404 95.3887C49.2152 94.7835 50.1909 94.0316 50.8677 93.1328C51.548 92.234 51.9365 91.2064 52.0332 90.0498H48.3809V89.3623H52.8926C52.8854 90.8018 52.5202 92.0962 51.7969 93.2456C51.0736 94.395 49.9421 95.3385 48.4023 96.0762L47.9404 95.3887ZM64.2449 91.2207H65.6844V91.9297H64.2449V95.3457H63.407V88.3311H64.2449V91.2207ZM57.1873 89.0186H58.0145V90.6299H60.7967V89.0186H61.6346V93.7344H57.1873V89.0186ZM60.7967 93.0469V91.2959H58.0145V93.0469H60.7967ZM58.2723 94.6582H59.0994V96.957H64.6854V97.666H58.2723V94.6582ZM75.6059 90.2432V90.3613C75.5987 91.1527 75.5736 91.8599 75.5307 92.4829C75.4913 93.106 75.3982 93.8275 75.2514 94.6475L74.392 94.5508C74.503 93.985 74.5836 93.4533 74.6337 92.9556C74.6874 92.4543 74.7196 92.012 74.7304 91.6289C74.7447 91.2458 74.7537 90.7839 74.7572 90.2432V89.9854H68.8705V89.2871H75.6059V90.2432ZM67.9467 95.8184H71.3627V92.4023H72.1898V95.8184H76.6479V96.5166H67.9467V95.8184ZM85.6047 93.6377H81.6623V94.7656H84.5412V97.7412H77.967V94.7656H80.8352V93.6377H76.9035V92.9395H85.6047V93.6377ZM77.7199 88.6318H84.7775V89.3301H83.3059V91.3389H84.7453V92.0371H77.7522V91.3389H79.1916V89.3301H77.7199V88.6318ZM83.7141 97.0537V95.4316H78.8049V97.0537H83.7141ZM82.468 91.3389V89.3301H80.0295V91.3389H82.468ZM93.7344 93.2832H92.9072V88.3203H93.7344V93.2832ZM86 92.6279C86.4727 92.4704 86.8934 92.243 87.2622 91.9458C87.6346 91.645 87.9246 91.2995 88.1323 90.9092C88.3436 90.5153 88.4492 90.1035 88.4492 89.6738V89.5664H86.2148V88.8682H91.5V89.5664H89.2979V89.6738C89.2979 90.082 89.4017 90.4705 89.6094 90.8394C89.8206 91.2082 90.1125 91.5322 90.4849 91.8115C90.8573 92.0872 91.2816 92.2949 91.7578 92.4346L91.3389 93.0898C90.7731 92.9108 90.2754 92.6405 89.8457 92.2788C89.4196 91.9136 89.1009 91.4875 88.8896 91.0005C88.682 91.534 88.3597 92.0013 87.9229 92.4023C87.4896 92.7998 86.9811 93.097 86.3975 93.2939L86 92.6279ZM87.5361 93.7451H93.7451V96.0225H88.3848V97.0859H94.0889V97.7627H87.5576V95.3887H92.9072V94.4111H87.5361V93.7451ZM105.246 97.8701H104.429V88.3203H105.246V97.8701ZM96.9205 94.7871C97.3466 94.7871 97.6832 94.7853 97.9303 94.7817V90.2432H97.1246V89.5449H101.518V90.2432H100.713V94.6689C101.16 94.6296 101.5 94.5938 101.733 94.5615L101.787 95.1846C101.139 95.3063 100.41 95.3905 99.6007 95.437C98.7914 95.4836 97.9929 95.5068 97.2052 95.5068H97.0279L96.9205 94.7871ZM98.7037 94.7656C99.1227 94.7549 99.5309 94.7388 99.9283 94.7173V90.2432H98.7037V94.7656ZM101.239 91.9512H102.571V88.5566H103.377V97.3652H102.571V92.7139H101.239V91.9512ZM113.719 94.1748H107.113V89.1475H113.612V89.8564H107.972V91.2744H113.408V91.9512H107.972V93.4873H113.719V94.1748ZM105.985 95.9258H114.729V96.624H105.985V95.9258ZM116.263 90.4473H118.927V88.9111H119.754V89.8887H122.01V88.3203H122.859V94.1104H122.01V92.5527H119.754V93.4014H115.425V88.9111H116.263V90.4473ZM118.927 92.7139V91.124H116.263V92.7139H118.927ZM116.488 96.0869C116.488 95.7109 116.616 95.3905 116.87 95.1255C117.128 94.8569 117.496 94.6528 117.976 94.5132C118.456 94.37 119.027 94.2965 119.69 94.293C120.349 94.2965 120.918 94.37 121.398 94.5132C121.881 94.6528 122.25 94.8569 122.504 95.1255C122.762 95.3905 122.891 95.7109 122.891 96.0869C122.891 96.4557 122.762 96.7726 122.504 97.0376C122.246 97.3026 121.877 97.5031 121.398 97.6392C120.918 97.7788 120.349 97.8486 119.69 97.8486C119.027 97.8486 118.456 97.7788 117.976 97.6392C117.496 97.5031 117.128 97.3026 116.87 97.0376C116.616 96.7726 116.488 96.4557 116.488 96.0869ZM117.326 96.0869C117.326 96.3125 117.419 96.5076 117.606 96.6724C117.795 96.8371 118.068 96.9624 118.422 97.0483C118.78 97.1379 119.203 97.1826 119.69 97.1826C120.173 97.1826 120.592 97.1379 120.946 97.0483C121.305 96.9624 121.578 96.8371 121.768 96.6724C121.958 96.5076 122.053 96.3125 122.053 96.0869C122.053 95.8506 121.958 95.6483 121.768 95.48C121.578 95.3117 121.306 95.1828 120.952 95.0933C120.597 95.0037 120.177 94.959 119.69 94.959C119.203 94.959 118.78 95.0037 118.422 95.0933C118.068 95.1828 117.795 95.3117 117.606 95.48C117.419 95.6483 117.326 95.8506 117.326 96.0869ZM122.01 91.8545V90.5762H119.754V91.8545H122.01ZM130.9 89.2119C130.9 89.6452 131.067 90.0588 131.4 90.4526C131.736 90.8429 132.171 91.1724 132.705 91.4409C133.242 91.7059 133.801 91.8796 134.381 91.9619L134.037 92.6494C133.536 92.5671 133.05 92.4238 132.581 92.2197C132.112 92.012 131.692 91.7542 131.319 91.4463C130.95 91.1348 130.667 90.7892 130.471 90.4097C130.274 90.7928 129.991 91.1383 129.622 91.4463C129.253 91.7542 128.834 92.012 128.365 92.2197C127.896 92.4238 127.409 92.5671 126.904 92.6494L126.56 91.9619C127.144 91.8796 127.703 91.7059 128.236 91.4409C128.77 91.1759 129.201 90.8483 129.531 90.458C129.864 90.0677 130.03 89.6523 130.03 89.2119V88.6641H130.9V89.2119ZM126.109 93.7021H134.81V94.4111H130.857V97.8701H130.03V94.4111H126.109V93.7021ZM138.504 89.8994C138.504 90.3076 138.609 90.6979 138.82 91.0703C139.032 91.4427 139.324 91.7686 139.696 92.0479C140.068 92.3271 140.491 92.5384 140.963 92.6816L140.534 93.3477C139.975 93.1686 139.481 92.8965 139.051 92.5312C138.625 92.1624 138.305 91.731 138.09 91.2368C137.879 91.7668 137.556 92.2305 137.123 92.6279C136.693 93.0218 136.194 93.3154 135.625 93.5088L135.184 92.8428C135.66 92.6924 136.085 92.4686 136.457 92.1714C136.833 91.8742 137.127 91.5286 137.338 91.1348C137.549 90.7409 137.655 90.3291 137.655 89.8994V89.6523H135.421V88.9648H140.706V89.6523H138.504V89.8994ZM136.763 93.96H137.601V95.1201H142.113V93.96H142.951V97.7412H136.763V93.96ZM142.113 97.0537V95.7969H137.601V97.0537H142.113ZM142.113 88.3203H142.951V93.4873H142.113V88.3203ZM151.218 92.832H146.738V88.9434H151.218V92.832ZM147.426 97.1826C147.97 97.1217 148.491 96.9875 148.989 96.7798C149.487 96.5721 149.888 96.3215 150.192 96.0278C150.496 95.7306 150.649 95.4281 150.649 95.1201H147.823V94.4648H150.659V93.5303H151.497V94.4648H154.355V95.1201H151.519C151.519 95.4209 151.667 95.7181 151.965 96.0117C152.262 96.3053 152.654 96.5578 153.141 96.769C153.631 96.9767 154.147 97.1146 154.688 97.1826L154.398 97.8379C153.921 97.7734 153.465 97.6571 153.028 97.4888C152.595 97.3241 152.208 97.1217 151.868 96.8818C151.531 96.6383 151.27 96.3716 151.084 96.0815C150.897 96.3752 150.633 96.6437 150.289 96.8872C149.945 97.1271 149.553 97.3276 149.113 97.4888C148.672 97.6535 148.21 97.7699 147.727 97.8379L147.426 97.1826ZM150.391 92.166V89.6309H147.566V92.166H150.391ZM153.28 88.3203H154.108V93.8096H153.28V88.3203ZM166.145 96.6455H157.401V95.9473H161.333V93.8848H158.432V88.9971H159.281V90.7266H164.244V88.9971H165.071V93.8848H162.16V95.9473H166.145V96.6455ZM164.244 93.1973V91.4141H159.281V93.1973H164.244ZM169.548 89.8672C169.548 90.2933 169.649 90.7051 169.849 91.1025C170.053 91.4964 170.334 91.8438 170.692 92.1445C171.054 92.4453 171.464 92.6745 171.922 92.832L171.461 93.498C170.934 93.3047 170.47 93.02 170.069 92.644C169.672 92.2645 169.368 91.8241 169.156 91.3228C168.952 91.8885 168.644 92.3826 168.233 92.8052C167.821 93.2277 167.336 93.5482 166.777 93.7666L166.326 93.0898C166.798 92.9144 167.216 92.6619 167.577 92.3325C167.939 92.0031 168.22 91.6217 168.421 91.1885C168.621 90.7516 168.721 90.2897 168.721 89.8027V88.8145H169.548V89.8672ZM167.593 96.1084C167.593 95.7467 167.72 95.437 167.975 95.1792C168.229 94.9178 168.594 94.7191 169.07 94.583C169.547 94.4469 170.111 94.3789 170.762 94.3789C171.414 94.3789 171.974 94.4469 172.443 94.583C172.916 94.7191 173.278 94.9178 173.528 95.1792C173.783 95.437 173.91 95.7467 173.91 96.1084C173.91 96.4772 173.784 96.7905 173.534 97.0483C173.283 97.3097 172.921 97.5085 172.449 97.6445C171.976 97.7806 171.414 97.8486 170.762 97.8486C170.107 97.8486 169.541 97.7806 169.065 97.6445C168.592 97.5085 168.229 97.3097 167.975 97.0483C167.72 96.7869 167.593 96.4736 167.593 96.1084ZM168.442 96.1084C168.438 96.3304 168.53 96.522 168.716 96.6831C168.902 96.8442 169.169 96.9678 169.516 97.0537C169.867 97.1396 170.282 97.1826 170.762 97.1826C171.242 97.1826 171.656 97.1396 172.003 97.0537C172.354 96.9678 172.623 96.8442 172.809 96.6831C172.998 96.522 173.093 96.3304 173.093 96.1084C173.093 95.8936 172.998 95.7074 172.809 95.5498C172.623 95.3887 172.354 95.2669 172.003 95.1846C171.652 95.0986 171.239 95.0557 170.762 95.0557C170.286 95.0557 169.873 95.0986 169.522 95.1846C169.171 95.2705 168.902 95.3923 168.716 95.5498C168.53 95.7074 168.438 95.8936 168.442 96.1084ZM172.986 88.3203H173.824V90.8125H175.263V91.5215H173.824V94.1318H172.986V88.3203ZM180.888 90.8877C180.888 91.4535 180.997 92.012 181.216 92.5635C181.438 93.1149 181.738 93.6055 182.118 94.0352C182.501 94.4613 182.922 94.7799 183.38 94.9912L182.875 95.6787C182.331 95.3994 181.846 94.9912 181.42 94.4541C180.997 93.9134 180.68 93.3029 180.469 92.6226C180.254 93.3423 179.934 93.9886 179.508 94.5615C179.085 95.1344 178.603 95.5641 178.063 95.8506L177.515 95.1738C177.977 94.9482 178.399 94.6099 178.782 94.1587C179.166 93.7039 179.468 93.1901 179.69 92.6172C179.916 92.0407 180.029 91.4642 180.029 90.8877V89.1475H180.888V90.8877ZM182.338 91.5859H184.605V88.3203H185.443V97.8916H184.605V92.2734H182.338V91.5859ZM194.356 97.8916H193.508V88.3203H194.356V97.8916ZM187.041 89.1367H187.879V91.6611H190.726V89.1367H191.553V95.582H187.041V89.1367ZM190.726 94.873V92.3379H187.879V94.873H190.726ZM200.198 89.7275C200.198 90.2503 200.373 90.7534 200.724 91.2368C201.075 91.7202 201.523 92.132 202.067 92.4722C202.615 92.8088 203.17 93.029 203.732 93.1328L203.346 93.8418C202.855 93.7272 202.373 93.541 201.901 93.2832C201.432 93.0254 201.009 92.7067 200.633 92.3271C200.257 91.9476 199.969 91.5322 199.768 91.0811C199.568 91.5322 199.28 91.9476 198.904 92.3271C198.528 92.7031 198.103 93.0218 197.631 93.2832C197.162 93.541 196.682 93.7272 196.191 93.8418L195.804 93.1328C196.367 93.0254 196.918 92.8034 197.459 92.4668C198.003 92.1302 198.449 91.7202 198.796 91.2368C199.144 90.7534 199.317 90.2503 199.317 89.7275V88.9971H200.198V89.7275ZM195.439 95.8721H204.183V96.5703H195.439V95.8721Z" fill="#F4F4F4"/>
</svg>
