<svg width="223" height="113" viewBox="0 0 223 113" fill="none" xmlns="http://www.w3.org/2000/svg">
<path d="M108.296 33.5024H101.492L109.964 23.5441C110.58 22.8192 110.719 21.7928 110.318 20.9301C109.917 20.0674 109.043 19.5104 108.09 19.5104H96.1757C94.8217 19.5104 93.7197 20.6094 93.7197 21.9599C93.7197 23.3103 94.8217 24.4093 96.1757 24.4093H102.788L94.3167 34.3676C93.7004 35.0925 93.5614 36.1189 93.9625 36.9816C94.3636 37.8443 95.2378 38.4013 96.1908 38.4013H108.297C109.651 38.4013 110.753 37.3023 110.753 35.9519C110.753 34.6014 109.651 33.5024 108.297 33.5024H108.296Z" fill="white"/>
<path d="M128.189 34.7383L123.382 28.6346L128.119 22.9067C128.989 21.8554 128.829 20.3016 127.763 19.4441C126.698 18.5866 125.123 18.7435 124.254 19.7948L120.242 24.6468L116.457 19.841C115.614 18.7696 114.043 18.5749 112.957 19.408C112.431 19.8116 112.096 20.393 112.013 21.0449C111.929 21.6968 112.11 22.342 112.518 22.8614L117.006 28.5599L111.933 34.693C111.063 35.7443 111.223 37.2981 112.288 38.1556C112.732 38.513 113.292 38.7102 113.864 38.7102C114.617 38.7102 115.321 38.3805 115.797 37.8049L120.146 32.5477L124.25 37.7596C124.726 38.3637 125.445 38.711 126.221 38.711C126.78 38.711 127.309 38.5323 127.75 38.1934C128.276 37.7898 128.611 37.2084 128.695 36.5565C128.778 35.9046 128.598 35.2594 128.189 34.74V34.7383Z" fill="white"/>
<path d="M103.697 9.36934C105.326 6.54881 108.243 4.86415 111.5 4.86415C114.757 4.86415 117.674 6.54782 119.303 9.36934L123.016 15.8011L125.661 10.6016L123.515 6.93727C121.007 2.59336 116.516 0 111.5 0C106.484 0 101.993 2.59336 99.4853 6.93727L95.8347 13.2609L101.444 13.2589L103.698 9.36934" fill="white"/>
<path d="M97.3955 47.3139C94.1384 47.3139 91.2215 45.6302 89.5929 42.8087C87.9643 39.9882 87.9643 36.6199 89.5929 33.7993L92.7419 28.3451L87.0871 28.3795L85.3808 31.3672C82.8731 35.7111 82.8731 40.8969 85.3808 45.2408C87.8886 49.5847 92.38 52.1781 97.3955 52.1781L107.736 52.2203L104.296 47.3139H97.3955Z" fill="white"/>
<path d="M134.42 25.8254L131.635 30.7289L133.407 33.7993C135.036 36.6198 135.036 39.9881 133.407 42.8087C131.779 45.6292 128.862 47.3139 125.604 47.3139H118.791L122.267 52.1623L125.604 52.178C130.62 52.178 135.111 49.5846 137.619 45.2407C140.127 40.8968 140.127 35.7111 137.619 31.3672L134.419 25.8254H134.42Z" fill="white"/>
<path d="M60.0326 70.4217V68.4246H47.8948V71.258H55.4467L47.9054 81.1862V83.1833H60.0432V80.3499H52.4913L60.0326 70.4217Z" fill="white"/>
<path d="M62.3044 83.1833H73.0021V80.3499H65.9306V77.21H72.4477V74.3867H65.9306V71.258H73.0021V68.4246H62.3044V83.1833Z" fill="white"/>
<path d="M158.999 68.4246H155.373V83.1844H158.999V68.4246Z" fill="white"/>
<path d="M170.295 75.8034L174.956 68.4246H170.881L167.98 73.1642H167.852L164.973 68.4246H160.866L165.548 75.8034L160.759 83.1833H164.897L167.852 78.4134H167.98L170.923 83.1833H175.105L170.295 75.8034Z" fill="white"/>
<path d="M84.569 77.5367C85.4324 77.1628 86.0937 76.6161 86.553 75.8954C87.0112 75.1747 87.2414 74.3193 87.2414 73.3269C87.2414 72.3346 87.0159 71.4601 86.5636 70.7225C86.1125 69.985 85.4653 69.4181 84.6219 69.0207C83.7797 68.6233 82.7788 68.4246 81.6194 68.4246H75.3056V83.1844H78.9318V78.098H80.9475L83.7738 83.1844H87.7735L84.5502 77.5445C84.5502 77.5445 84.562 77.54 84.5679 77.5378L84.569 77.5367ZM78.933 71.2378H80.8524C81.428 71.2378 81.9096 71.3164 82.2972 71.4724C82.6849 71.6284 82.9774 71.8597 83.177 72.165C83.3756 72.4704 83.4754 72.8577 83.4754 73.3269C83.4754 73.7962 83.3756 74.1577 83.177 74.4529C82.9774 74.7481 82.6884 74.9693 82.3078 75.1152C81.9272 75.2612 81.4456 75.3341 80.863 75.3341H78.933V71.2378Z" fill="white"/>
<path d="M99.5918 69.1071C98.4829 68.5155 97.2272 68.2202 95.827 68.2202C94.4268 68.2202 93.1805 68.5155 92.0669 69.1071C90.9545 69.6987 90.0794 70.5642 89.4427 71.7059C88.8061 72.8476 88.4877 74.2138 88.4877 75.8033C88.4877 77.3929 88.8061 78.7221 89.4427 79.8705C90.0794 81.0189 90.9533 81.8923 92.0669 82.4906C93.1793 83.089 94.4327 83.3876 95.827 83.3876C97.2214 83.3876 98.4829 83.089 99.5918 82.4906C100.701 81.8923 101.576 81.0223 102.216 79.8817C102.856 78.7401 103.176 77.3806 103.176 75.8045C103.176 74.2283 102.856 72.8487 102.216 71.707C101.576 70.5653 100.702 69.6987 99.5918 69.1082V69.1071ZM99.0315 78.2753C98.7437 78.9511 98.3279 79.4641 97.784 79.8144C97.2401 80.1646 96.587 80.3398 95.827 80.3398C95.067 80.3398 94.4245 80.1646 93.8806 79.8144C93.3367 79.4641 92.9209 78.9511 92.6331 78.2753C92.3453 77.5995 92.2008 76.7755 92.2008 75.8033C92.2008 74.8312 92.3453 74.0083 92.6331 73.3314C92.9209 72.6556 93.3367 72.1426 93.8806 71.7923C94.4245 71.4421 95.0729 71.2669 95.827 71.2669C96.5812 71.2669 97.2401 71.4421 97.784 71.7923C98.3279 72.1426 98.7437 72.6556 99.0315 73.3314C99.3193 74.0072 99.4638 74.8312 99.4638 75.8033C99.4638 76.7755 99.3193 77.5995 99.0315 78.2753Z" fill="white"/>
<path d="M114.203 77.0775H114.065L107.879 68.4246H104.732V83.1833H108.358V74.5191H108.476L114.726 83.1833H117.819V68.4246H114.203V77.0775Z" fill="white"/>
<path d="M130.373 69.1071C129.264 68.5155 128.008 68.2202 126.608 68.2202C125.208 68.2202 123.961 68.5155 122.848 69.1071C121.735 69.6987 120.86 70.5642 120.224 71.7059C119.587 72.8476 119.269 74.2138 119.269 75.8033C119.269 77.3929 119.587 78.7221 120.224 79.8705C120.86 81.0189 121.734 81.8923 122.848 82.4907C123.96 83.089 125.214 83.3876 126.608 83.3876C128.002 83.3876 129.264 83.089 130.373 82.4907C131.482 81.8923 132.357 81.0223 132.997 79.8817C133.637 78.7401 133.957 77.3806 133.957 75.8045C133.957 74.2283 133.637 72.8487 132.997 71.707C132.357 70.5653 131.483 69.6987 130.373 69.1082V69.1071ZM129.812 78.2753C129.525 78.9511 129.109 79.4641 128.565 79.8144C128.021 80.1646 127.368 80.3398 126.608 80.3398C125.848 80.3398 125.205 80.1646 124.662 79.8144C124.118 79.4641 123.702 78.9511 123.414 78.2753C123.126 77.5995 122.982 76.7755 122.982 75.8033C122.982 74.8312 123.126 74.0083 123.414 73.3314C123.702 72.6556 124.118 72.1426 124.662 71.7923C125.205 71.4421 125.854 71.2669 126.608 71.2669C127.362 71.2669 128.021 71.4421 128.565 71.7923C129.109 72.1426 129.525 72.6556 129.812 73.3314C130.1 74.0072 130.245 74.8312 130.245 75.8033C130.245 76.7755 130.1 77.5995 129.812 78.2753Z" fill="white"/>
<path d="M144.536 77.7095H144.355L140.355 68.4246H135.864V83.1833H139.406V73.9691H139.534L143.299 83.0924H145.581L149.358 73.9994H149.486V83.1833H153.026V68.4246H148.514L144.536 77.7095Z" fill="white"/>
<path d="M4.31094 98.1182C4.31094 98.6924 4.43789 99.2646 4.6918 99.835C4.94961 100.405 5.29336 100.913 5.72305 101.358C6.15664 101.8 6.62734 102.13 7.13515 102.349L6.61953 103.075C6.00625 102.798 5.45351 102.376 4.96133 101.81C4.47305 101.243 4.10781 100.601 3.86562 99.8818C3.62344 100.644 3.25625 101.335 2.76406 101.956C2.27578 102.573 1.73281 103.032 1.13515 103.333L0.584373 102.606C1.08047 102.368 1.5414 102.009 1.96719 101.528C2.39687 101.048 2.74062 100.507 2.99844 99.9053C3.25625 99.2998 3.38515 98.7041 3.38515 98.1182V96.7588H0.924217V95.9971H6.79531V96.7588H4.31094V98.1182ZM8.24844 94.9189H9.17422V105.337H8.24844V94.9189ZM18.9922 105.337H18.0664V102.372H11.9844V101.634H18.9922V105.337ZM10.5195 98.001C10.5195 97.5244 10.6348 97.0986 10.8652 96.7236C11.0996 96.3447 11.4219 96.0498 11.832 95.8389C12.2422 95.624 12.7031 95.5166 13.2148 95.5166C13.6641 95.5166 14.0742 95.5986 14.4453 95.7627C14.8203 95.9268 15.1309 96.1572 15.377 96.4541H18.0664V94.9189H18.9922V101.06H18.0664V99.5596H15.3828C15.1367 99.8604 14.8262 100.093 14.4512 100.257C14.0762 100.417 13.6582 100.497 13.1973 100.497C12.6895 100.497 12.2305 100.392 11.8203 100.181C11.4141 99.9697 11.0957 99.6748 10.8652 99.2959C10.6348 98.917 10.5195 98.4854 10.5195 98.001ZM11.3984 98.001C11.3984 98.333 11.4766 98.6299 11.6328 98.8916C11.7891 99.1533 12.0059 99.3584 12.2832 99.5068C12.5605 99.6514 12.875 99.7236 13.2266 99.7236C13.5664 99.7236 13.873 99.6514 14.1465 99.5068C14.4199 99.3584 14.6348 99.1533 14.791 98.8916C14.9512 98.6299 15.0312 98.333 15.0312 98.001C15.0312 97.6807 14.9512 97.3916 14.791 97.1338C14.6348 96.8721 14.418 96.6689 14.1406 96.5244C13.8672 96.376 13.5625 96.3018 13.2266 96.3018C12.875 96.3018 12.5605 96.376 12.2832 96.5244C12.0059 96.6689 11.7891 96.8701 11.6328 97.1279C11.4766 97.3857 11.3984 97.6768 11.3984 98.001ZM18.0664 98.7979V97.2158H15.793C15.8789 97.4736 15.9219 97.7354 15.9219 98.001C15.9219 98.2666 15.8809 98.5322 15.7988 98.7979H18.0664ZM24.8375 101.505C25.5797 101.505 26.2242 101.581 26.7711 101.733C27.3219 101.882 27.7457 102.101 28.0426 102.39C28.3434 102.675 28.4937 103.017 28.4937 103.415C28.4937 103.81 28.3434 104.149 28.0426 104.435C27.7457 104.72 27.3219 104.937 26.7711 105.085C26.2242 105.237 25.5797 105.313 24.8375 105.313C24.0953 105.313 23.4488 105.237 22.898 105.085C22.3512 104.937 21.9293 104.72 21.6324 104.435C21.3395 104.149 21.193 103.81 21.193 103.415C21.193 103.017 21.3395 102.675 21.6324 102.39C21.9293 102.101 22.3512 101.882 22.898 101.733C23.4488 101.581 24.0953 101.505 24.8375 101.505ZM20.1383 99.7822H24.0641V97.7666H24.9664V99.7822H29.6187V100.532H20.1383V99.7822ZM21.2633 95.458H28.4117V96.3369C28.4078 96.9111 28.3902 97.3975 28.359 97.7959C28.3277 98.1904 28.2477 98.626 28.1187 99.1025L27.2164 98.9971C27.3414 98.5205 27.4195 98.0928 27.4508 97.7139C27.482 97.3311 27.4977 96.8721 27.4977 96.3369V96.208H21.2633V95.458ZM22.107 103.415C22.107 103.653 22.2184 103.862 22.441 104.042C22.6637 104.218 22.9801 104.353 23.3902 104.446C23.8043 104.54 24.2867 104.587 24.8375 104.587C25.3883 104.587 25.8687 104.54 26.2789 104.446C26.693 104.353 27.0113 104.218 27.234 104.042C27.4605 103.862 27.5758 103.653 27.5797 103.415C27.5758 103.169 27.4605 102.956 27.234 102.776C27.0113 102.597 26.693 102.458 26.2789 102.36C25.8687 102.259 25.3883 102.208 24.8375 102.208C24.2867 102.208 23.8043 102.259 23.3902 102.36C22.9801 102.458 22.6637 102.597 22.441 102.776C22.2184 102.956 22.107 103.169 22.107 103.415ZM39.4016 100.813H29.8977V100.075H34.1984V98.8564H31.1047V95.4111H38.218V96.1494H32.007V98.1064H38.2883V98.8564H35.0891V100.075H39.4016V100.813ZM31.0461 103.45C31.0461 103.056 31.1887 102.72 31.4738 102.442C31.759 102.161 32.1711 101.946 32.7102 101.798C33.2492 101.649 33.8937 101.575 34.6437 101.575C35.3859 101.575 36.0246 101.649 36.5598 101.798C37.0949 101.946 37.5051 102.161 37.7902 102.442C38.0793 102.72 38.2258 103.056 38.2297 103.45C38.2258 103.849 38.0812 104.187 37.7961 104.464C37.5109 104.745 37.0988 104.96 36.5598 105.108C36.0246 105.257 35.3859 105.333 34.6437 105.337C33.8937 105.333 33.2492 105.257 32.7102 105.108C32.1711 104.96 31.759 104.745 31.4738 104.464C31.1887 104.183 31.0461 103.845 31.0461 103.45ZM31.9836 103.45C31.9797 103.688 32.0812 103.896 32.2883 104.071C32.4992 104.243 32.802 104.374 33.1965 104.464C33.591 104.554 34.0617 104.599 34.6086 104.599C35.4523 104.599 36.1105 104.499 36.5832 104.3C37.0598 104.101 37.3 103.817 37.3039 103.45C37.3039 103.212 37.1965 103.007 36.9816 102.835C36.7668 102.663 36.4602 102.532 36.0617 102.442C35.6633 102.349 35.1906 102.302 34.6437 102.302C34.0891 102.302 33.6105 102.349 33.2082 102.442C32.8098 102.532 32.5051 102.663 32.2941 102.835C32.0832 103.007 31.9797 103.212 31.9836 103.45ZM42.7156 98.1299C42.7195 98.6924 42.8113 99.2451 42.991 99.7881C43.1746 100.327 43.4383 100.815 43.782 101.253C44.1258 101.69 44.5281 102.032 44.9891 102.278L44.4617 102.97C43.9539 102.692 43.5145 102.302 43.1434 101.798C42.7723 101.29 42.4891 100.714 42.2937 100.069C42.1023 100.757 41.8211 101.376 41.45 101.927C41.0828 102.474 40.6453 102.899 40.1375 103.204L39.5867 102.501C40.0477 102.235 40.448 101.87 40.7879 101.405C41.1277 100.94 41.3875 100.423 41.5672 99.8525C41.7508 99.2822 41.8445 98.708 41.8484 98.1299V97.6143H39.868V96.8525H41.8484V95.3057H42.7273V96.8525H44.6727V97.6143H42.7156V98.1299ZM43.9578 99.0322H45.5984V95.1768H46.4656V104.798H45.5984V99.8174H43.9578V99.0322ZM47.6961 94.9189H48.575V105.337H47.6961V94.9189ZM60.4648 105.337H59.5391V94.9189H60.4648V105.337ZM51.9805 102.63C53.3711 101.97 54.4355 101.149 55.1738 100.169C55.916 99.1885 56.3398 98.0674 56.4453 96.8057H52.4609V96.0557H57.3828C57.375 97.626 56.9766 99.0381 56.1875 100.292C55.3984 101.546 54.1641 102.575 52.4844 103.38L51.9805 102.63ZM69.7672 98.083H71.3375V98.8564H69.7672V102.583H68.8531V94.9307H69.7672V98.083ZM62.068 95.6807H62.9703V97.4385H66.0055V95.6807H66.9195V100.825H62.068V95.6807ZM66.0055 100.075V98.165H62.9703V100.075H66.0055ZM63.2516 101.833H64.1539V104.341H70.2477V105.114H63.2516V101.833ZM82.1609 97.0166V97.1455C82.1531 98.0088 82.1258 98.7803 82.0789 99.46C82.0359 100.14 81.9344 100.927 81.7742 101.821L80.8367 101.716C80.9578 101.099 81.0457 100.519 81.1004 99.9756C81.159 99.4287 81.1941 98.9463 81.2059 98.5283C81.2215 98.1104 81.2312 97.6064 81.2352 97.0166V96.7354H74.8133V95.9736H82.1609V97.0166ZM73.8055 103.099H77.532V99.3721H78.4344V103.099H83.2977V103.86H73.8055V103.099ZM93.0687 100.72H88.768V101.95H91.9086V105.196H84.7367V101.95H87.8656V100.72H83.5766V99.958H93.0687V100.72ZM84.4672 95.2588H92.1664V96.0205H90.5609V98.2119H92.1312V98.9736H84.5023V98.2119H86.0727V96.0205H84.4672V95.2588ZM91.0062 104.446V102.677H85.6508V104.446H91.0062ZM89.6469 98.2119V96.0205H86.9867V98.2119H89.6469ZM101.938 100.333H101.035V94.9189H101.938V100.333ZM93.5 99.6182C94.0156 99.4463 94.4746 99.1982 94.877 98.874C95.2832 98.5459 95.5996 98.1689 95.8262 97.7432C96.0566 97.3135 96.1719 96.8643 96.1719 96.3955V96.2783H93.7344V95.5166H99.5V96.2783H97.0977V96.3955C97.0977 96.8408 97.2109 97.2646 97.4375 97.667C97.668 98.0693 97.9863 98.4229 98.3926 98.7275C98.7988 99.0283 99.2617 99.2549 99.7812 99.4072L99.3242 100.122C98.707 99.9268 98.1641 99.6318 97.6953 99.2373C97.2305 98.8389 96.8828 98.374 96.6523 97.8428C96.4258 98.4248 96.0742 98.9346 95.5977 99.3721C95.125 99.8057 94.5703 100.13 93.9336 100.345L93.5 99.6182ZM95.1758 100.837H101.949V103.321H96.1016V104.481H102.324V105.22H95.1992V102.63H101.035V101.563H95.1758V100.837ZM114.495 105.337H113.605V94.9189H114.495V105.337ZM105.413 101.974C105.878 101.974 106.245 101.972 106.515 101.968V97.0166H105.636V96.2549H110.429V97.0166H109.55V101.845C110.038 101.802 110.409 101.763 110.663 101.728L110.722 102.407C110.015 102.54 109.22 102.632 108.337 102.683C107.454 102.733 106.583 102.759 105.724 102.759H105.53L105.413 101.974ZM107.359 101.95C107.816 101.938 108.261 101.921 108.695 101.897V97.0166H107.359V101.95ZM110.124 98.8799H111.577V95.1768H112.456V104.786H111.577V99.7119H110.124V98.8799ZM123.739 101.306H116.532V95.8213H123.622V96.5947H117.47V98.1416H123.399V98.8799H117.47V100.556H123.739V101.306ZM115.302 103.216H124.841V103.978H115.302V103.216ZM126.514 97.2393H129.42V95.5635H130.323V96.6299H132.784V94.9189H133.709V101.235H132.784V99.5361H130.323V100.462H125.6V95.5635H126.514V97.2393ZM129.42 99.7119V97.9775H126.514V99.7119H129.42ZM126.76 103.392C126.76 102.981 126.899 102.632 127.176 102.343C127.457 102.05 127.86 101.827 128.383 101.675C128.907 101.519 129.53 101.438 130.252 101.435C130.971 101.438 131.592 101.519 132.116 101.675C132.643 101.827 133.045 102.05 133.323 102.343C133.604 102.632 133.745 102.981 133.745 103.392C133.745 103.794 133.604 104.14 133.323 104.429C133.041 104.718 132.639 104.937 132.116 105.085C131.592 105.237 130.971 105.313 130.252 105.313C129.53 105.313 128.907 105.237 128.383 105.085C127.86 104.937 127.457 104.718 127.176 104.429C126.899 104.14 126.76 103.794 126.76 103.392ZM127.674 103.392C127.674 103.638 127.776 103.851 127.979 104.03C128.186 104.21 128.483 104.347 128.87 104.44C129.26 104.538 129.721 104.587 130.252 104.587C130.78 104.587 131.237 104.538 131.623 104.44C132.014 104.347 132.313 104.21 132.52 104.03C132.727 103.851 132.83 103.638 132.83 103.392C132.83 103.134 132.727 102.913 132.52 102.729C132.313 102.546 132.016 102.405 131.629 102.308C131.243 102.21 130.784 102.161 130.252 102.161C129.721 102.161 129.26 102.21 128.87 102.308C128.483 102.405 128.186 102.546 127.979 102.729C127.776 102.913 127.674 103.134 127.674 103.392ZM132.784 98.7744V97.3799H130.323V98.7744H132.784ZM142.482 95.8916C142.482 96.3643 142.664 96.8154 143.027 97.2451C143.394 97.6709 143.869 98.0303 144.451 98.3232C145.037 98.6123 145.646 98.8018 146.279 98.8916L145.904 99.6416C145.357 99.5518 144.828 99.3955 144.316 99.1729C143.804 98.9463 143.345 98.665 142.939 98.3291C142.537 97.9893 142.228 97.6123 142.013 97.1982C141.798 97.6162 141.49 97.9932 141.087 98.3291C140.685 98.665 140.228 98.9463 139.716 99.1729C139.205 99.3955 138.673 99.5518 138.123 99.6416L137.748 98.8916C138.384 98.8018 138.994 98.6123 139.576 98.3232C140.158 98.0342 140.629 97.6768 140.988 97.251C141.351 96.8252 141.533 96.3721 141.533 95.8916V95.2939H142.482V95.8916ZM137.255 100.79H146.748V101.563H142.435V105.337H141.533V101.563H137.255V100.79ZM150.777 96.6416C150.777 97.0869 150.892 97.5127 151.122 97.9189C151.353 98.3252 151.671 98.6807 152.077 98.9854C152.484 99.29 152.945 99.5205 153.46 99.6768L152.991 100.403C152.382 100.208 151.843 99.9111 151.374 99.5127C150.909 99.1104 150.56 98.6396 150.325 98.1006C150.095 98.6787 149.743 99.1846 149.271 99.6182C148.802 100.048 148.257 100.368 147.636 100.579L147.155 99.8525C147.675 99.6885 148.138 99.4443 148.544 99.1201C148.954 98.7959 149.275 98.4189 149.505 97.9893C149.736 97.5596 149.851 97.1104 149.851 96.6416V96.3721H147.413V95.6221H153.179V96.3721H150.777V96.6416ZM148.878 101.071H149.792V102.337H154.714V101.071H155.628V105.196H148.878V101.071ZM154.714 104.446V103.075H149.792V104.446H154.714ZM154.714 94.9189H155.628V100.556H154.714V94.9189ZM164.647 99.8408H159.76V95.5986H164.647V99.8408ZM160.51 104.587C161.104 104.521 161.672 104.374 162.215 104.147C162.758 103.921 163.196 103.647 163.528 103.327C163.86 103.003 164.026 102.673 164.026 102.337H160.944V101.622H164.038V100.603H164.952V101.622H168.069V102.337H164.975C164.975 102.665 165.137 102.989 165.461 103.31C165.786 103.63 166.213 103.905 166.745 104.136C167.28 104.362 167.842 104.513 168.432 104.587L168.116 105.302C167.596 105.231 167.098 105.104 166.621 104.921C166.149 104.741 165.727 104.521 165.356 104.259C164.989 103.993 164.704 103.702 164.5 103.386C164.297 103.706 164.008 103.999 163.633 104.265C163.258 104.526 162.83 104.745 162.35 104.921C161.87 105.101 161.366 105.228 160.838 105.302L160.51 104.587ZM163.745 99.1143V96.3486H160.663V99.1143H163.745ZM166.897 94.9189H167.799V100.907H166.897V94.9189ZM180.931 104.001H171.392V103.239H175.681V100.989H172.517V95.6572H173.443V97.5439H178.857V95.6572H179.759V100.989H176.584V103.239H180.931V104.001ZM178.857 100.239V98.2939H173.443V100.239H178.857ZM184.644 96.6064C184.644 97.0713 184.753 97.5205 184.972 97.9541C185.195 98.3838 185.501 98.7627 185.892 99.0908C186.286 99.4189 186.734 99.6689 187.234 99.8408L186.73 100.567C186.155 100.356 185.65 100.046 185.212 99.6357C184.779 99.2217 184.446 98.7412 184.216 98.1943C183.993 98.8115 183.657 99.3506 183.208 99.8115C182.759 100.272 182.23 100.622 181.62 100.86L181.128 100.122C181.644 99.9307 182.099 99.6553 182.493 99.2959C182.888 98.9365 183.195 98.5205 183.413 98.0479C183.632 97.5713 183.741 97.0674 183.741 96.5361V95.458H184.644V96.6064ZM182.511 103.415C182.511 103.021 182.65 102.683 182.927 102.401C183.204 102.116 183.603 101.899 184.122 101.751C184.642 101.603 185.257 101.528 185.968 101.528C186.679 101.528 187.29 101.603 187.802 101.751C188.318 101.899 188.712 102.116 188.986 102.401C189.263 102.683 189.402 103.021 189.402 103.415C189.402 103.817 189.265 104.159 188.991 104.44C188.718 104.726 188.323 104.942 187.808 105.091C187.292 105.239 186.679 105.313 185.968 105.313C185.253 105.313 184.636 105.239 184.116 105.091C183.601 104.942 183.204 104.726 182.927 104.44C182.65 104.155 182.511 103.813 182.511 103.415ZM183.437 103.415C183.433 103.657 183.532 103.866 183.736 104.042C183.939 104.218 184.23 104.353 184.609 104.446C184.991 104.54 185.445 104.587 185.968 104.587C186.491 104.587 186.943 104.54 187.321 104.446C187.704 104.353 187.997 104.218 188.2 104.042C188.407 103.866 188.511 103.657 188.511 103.415C188.511 103.181 188.407 102.978 188.2 102.806C187.997 102.63 187.704 102.497 187.321 102.407C186.939 102.313 186.487 102.267 185.968 102.267C185.448 102.267 184.997 102.313 184.614 102.407C184.232 102.501 183.939 102.634 183.736 102.806C183.532 102.978 183.433 103.181 183.437 103.415ZM188.394 94.9189H189.308V97.6377H190.878V98.4111H189.308V101.259H188.394V94.9189ZM197.014 97.7197C197.014 98.3369 197.133 98.9463 197.371 99.5479C197.614 100.149 197.942 100.685 198.356 101.153C198.774 101.618 199.233 101.966 199.733 102.196L199.182 102.946C198.588 102.642 198.059 102.196 197.594 101.61C197.133 101.021 196.788 100.354 196.557 99.6123C196.323 100.397 195.973 101.103 195.508 101.728C195.047 102.353 194.522 102.821 193.932 103.134L193.334 102.396C193.838 102.149 194.299 101.78 194.717 101.288C195.135 100.792 195.465 100.231 195.707 99.6064C195.954 98.9775 196.077 98.3486 196.077 97.7197V95.8213H197.014V97.7197ZM198.596 98.4814H201.069V94.9189H201.983V105.36H201.069V99.2314H198.596V98.4814ZM211.707 105.36H210.781V94.9189H211.707V105.36ZM203.727 95.8096H204.641V98.5635H207.746V95.8096H208.648V102.841H203.727V95.8096ZM207.746 102.067V99.3018H204.641V102.067H207.746ZM218.08 96.4541C218.08 97.0244 218.271 97.5732 218.654 98.1006C219.037 98.6279 219.525 99.0771 220.119 99.4482C220.716 99.8154 221.322 100.056 221.935 100.169L221.513 100.942C220.978 100.817 220.453 100.614 219.937 100.333C219.425 100.052 218.964 99.7041 218.554 99.29C218.144 98.876 217.83 98.4229 217.611 97.9307C217.392 98.4229 217.078 98.876 216.668 99.29C216.257 99.7002 215.795 100.048 215.279 100.333C214.767 100.614 214.244 100.817 213.709 100.942L213.287 100.169C213.9 100.052 214.502 99.8096 215.091 99.4424C215.685 99.0752 216.171 98.6279 216.55 98.1006C216.929 97.5732 217.119 97.0244 217.119 96.4541V95.6572H218.08V96.4541ZM212.888 103.157H222.427V103.919H212.888V103.157Z" fill="#F4F4F4"/>
</svg>
