<svg width="48" height="48" viewBox="0 0 48 48" fill="none" xmlns="http://www.w3.org/2000/svg">
<path d="M15.7515 0H32.2485C40.9421 0 48 7.05788 48 15.7515V32.2485C48 40.9421 40.9421 48 32.2485 48H15.7515C7.05788 48 0 40.9421 0 32.2485V15.7515C0 7.05788 7.05788 0 15.7515 0Z" fill="url(#paint0_radial_38_214)"/>
<path d="M22.3758 28.3965H18.3814L23.3551 22.55C23.717 22.1244 23.7986 21.5218 23.5631 21.0153C23.3276 20.5088 22.8144 20.1818 22.2549 20.1818H15.2602C14.4652 20.1818 13.8182 20.827 13.8182 21.6199C13.8182 22.4127 14.4652 23.0579 15.2602 23.0579H19.1425L14.1688 28.9045C13.8069 29.33 13.7253 29.9326 13.9608 30.4391C14.1963 30.9456 14.7095 31.2727 15.269 31.2727H22.3763C23.1713 31.2727 23.8182 30.6274 23.8182 29.8346C23.8182 29.0417 23.1713 28.3965 22.3763 28.3965H22.3758Z" fill="white"/>
<path d="M34.0554 29.1222L31.2329 25.5387L34.0139 22.1759C34.5246 21.5587 34.4308 20.6464 33.8053 20.143C33.1798 19.6396 32.2552 19.7317 31.745 20.3489L29.3893 23.1975L27.1673 20.376C26.6721 19.7469 25.7501 19.6327 25.1126 20.1218C24.8036 20.3587 24.6069 20.7001 24.558 21.0828C24.509 21.4656 24.6149 21.8443 24.8545 22.1493L27.4893 25.4949L24.511 29.0956C24.0003 29.7128 24.0942 30.6251 24.7197 31.1285C24.9803 31.3384 25.3088 31.4541 25.6447 31.4541C26.087 31.4541 26.5004 31.2605 26.7799 30.9226L29.3329 27.8361L31.7425 30.896C32.0221 31.2507 32.4439 31.4546 32.8997 31.4546C33.2277 31.4546 33.5382 31.3497 33.7973 31.1507C34.1063 30.9137 34.303 30.5724 34.3519 30.1897C34.4008 29.8069 34.295 29.4281 34.0554 29.1232V29.1222Z" fill="white"/>
<path d="M19.6761 14.228C20.6322 12.5721 22.3447 11.583 24.257 11.583C26.1693 11.583 27.8818 12.5715 28.8379 14.228L31.0181 18.0041L32.5707 14.9515L31.3108 12.8002C29.8385 10.2499 27.2016 8.72729 24.257 8.72729C21.3124 8.72729 18.6755 10.2499 17.2032 12.8002L15.0599 16.5128L18.3533 16.5116L19.6767 14.228" fill="white"/>
<path d="M15.9763 36.5053C14.064 36.5053 12.3515 35.5168 11.3954 33.8603C10.4392 32.2043 10.4392 30.2268 11.3954 28.5708L13.2442 25.3687L9.92423 25.3889L8.92247 27.143C7.45016 29.6933 7.45016 32.7378 8.92247 35.2881C10.3948 37.8384 13.0317 39.361 15.9763 39.361L22.0474 39.3858L20.0278 36.5053H15.9763Z" fill="white"/>
<path d="M37.7134 23.8894L36.0783 26.7682L37.1187 28.5708C38.0749 30.2268 38.0749 32.2043 37.1187 33.8603C36.1626 35.5162 34.4501 36.5053 32.5378 36.5053H28.5377L30.5782 39.3518L32.5378 39.361C35.4824 39.361 38.1193 37.8385 39.5916 35.2882C41.0639 32.7378 41.0639 29.6933 39.5916 27.143L37.7128 23.8894H37.7134Z" fill="white"/>
<defs>
<radialGradient id="paint0_radial_38_214" cx="0" cy="0" r="1" gradientUnits="userSpaceOnUse" gradientTransform="translate(-3 48) rotate(-36.3408) scale(70.8758)">
<stop offset="0.306255" stop-color="#117079"/>
<stop offset="0.463464" stop-color="#008995"/>
<stop offset="1" stop-color="#14F18D"/>
</radialGradient>
</defs>
</svg>
