<svg width="1024" height="40" viewBox="0 0 1024 40" fill="none" xmlns="http://www.w3.org/2000/svg">
<path d="M0 20H1024" stroke="#A7A7A7" stroke-width="2"/>
<rect width="92" height="40" transform="translate(466)" fill="white"/>
<path d="M475.455 14.6875H482.814V16.3906H477.486V19.4844H482.423V21.1875H477.486V24.2812H482.845V26H475.455V14.6875ZM486.273 17.5156H488.227V18.9062H488.352C488.56 18.4948 488.852 18.1432 489.227 17.8516C489.602 17.5547 490.122 17.4062 490.789 17.4062C491.451 17.4062 492.044 17.5755 492.57 17.9141C493.102 18.2526 493.521 18.75 493.828 19.4062C494.135 20.0625 494.289 20.849 494.289 21.7656C494.289 22.6719 494.138 23.4557 493.836 24.1172C493.534 24.7786 493.117 25.2839 492.586 25.6328C492.06 25.9766 491.461 26.151 490.789 26.1562C490.138 26.151 489.62 26.0026 489.234 25.7109C488.849 25.4193 488.555 25.0677 488.352 24.6562H488.273V29.1875H486.273V17.5156ZM488.227 21.75C488.232 22.3021 488.313 22.7865 488.469 23.2031C488.625 23.6198 488.854 23.9427 489.156 24.1719C489.458 24.401 489.82 24.5156 490.242 24.5156C490.669 24.5156 491.034 24.3984 491.336 24.1641C491.643 23.9297 491.872 23.6042 492.023 23.1875C492.18 22.7708 492.258 22.2917 492.258 21.75C492.258 20.9323 492.083 20.276 491.734 19.7812C491.391 19.2865 490.893 19.0365 490.242 19.0312C489.602 19.0365 489.107 19.2812 488.758 19.7656C488.409 20.25 488.232 20.9115 488.227 21.75ZM497.452 17.5156H499.452V26H497.452V17.5156ZM498.467 16.3125C498.259 16.3125 498.066 16.263 497.889 16.1641C497.712 16.0651 497.571 15.9323 497.467 15.7656C497.363 15.599 497.311 15.4167 497.311 15.2188C497.311 15.026 497.363 14.8464 497.467 14.6797C497.571 14.513 497.712 14.3828 497.889 14.2891C498.066 14.1901 498.259 14.1406 498.467 14.1406C498.676 14.1406 498.868 14.1901 499.045 14.2891C499.222 14.3828 499.363 14.513 499.467 14.6797C499.571 14.8464 499.623 15.026 499.623 15.2188C499.623 15.4167 499.571 15.599 499.467 15.7656C499.363 15.9323 499.222 16.0651 499.045 16.1641C498.868 16.263 498.676 16.3125 498.467 16.3125ZM504.958 26H502.958V14.6875H504.958V26ZM512.167 26.1719C511.349 26.1719 510.633 25.9896 510.019 25.625C509.409 25.2604 508.938 24.7474 508.605 24.0859C508.271 23.4245 508.105 22.6615 508.105 21.7969C508.105 20.9219 508.271 20.1536 508.605 19.4922C508.938 18.8307 509.409 18.3177 510.019 17.9531C510.633 17.5885 511.349 17.4062 512.167 17.4062C512.985 17.4062 513.701 17.5885 514.316 17.9531C514.93 18.3177 515.402 18.8307 515.73 19.4922C516.063 20.1536 516.23 20.9219 516.23 21.7969C516.23 22.6615 516.063 23.4245 515.73 24.0859C515.402 24.7474 514.93 25.2604 514.316 25.625C513.701 25.9896 512.985 26.1719 512.167 26.1719ZM510.12 21.7812C510.12 22.3125 510.196 22.7891 510.347 23.2109C510.503 23.6328 510.735 23.9661 511.042 24.2109C511.355 24.4557 511.735 24.5781 512.183 24.5781C512.62 24.5781 512.993 24.4557 513.3 24.2109C513.607 23.9661 513.836 23.6328 513.988 23.2109C514.144 22.7891 514.219 22.3125 514.214 21.7812C514.219 21.25 514.144 20.7734 513.988 20.3516C513.836 19.9297 513.607 19.5964 513.3 19.3516C512.993 19.1068 512.62 18.9844 512.183 18.9844C511.735 18.9844 511.355 19.1068 511.042 19.3516C510.735 19.5964 510.503 19.9297 510.347 20.3516C510.196 20.7734 510.12 21.25 510.12 21.7812ZM523.08 29.3594C522.335 29.3594 521.684 29.2526 521.127 29.0391C520.569 28.8307 520.129 28.5312 519.806 28.1406C519.489 27.7552 519.309 27.2969 519.267 26.7656H521.252C521.319 27.1302 521.515 27.401 521.838 27.5781C522.16 27.7604 522.585 27.8542 523.111 27.8594C523.736 27.8542 524.22 27.7083 524.564 27.4219C524.908 27.1354 525.08 26.6927 525.08 26.0938V24.4688H524.986C524.788 24.8594 524.494 25.1927 524.103 25.4688C523.713 25.7396 523.189 25.875 522.533 25.875C521.866 25.875 521.267 25.7161 520.736 25.3984C520.21 25.0755 519.793 24.6016 519.486 23.9766C519.184 23.3464 519.033 22.5833 519.033 21.6875C519.033 20.7865 519.186 20.013 519.494 19.3672C519.801 18.7214 520.22 18.2344 520.752 17.9062C521.283 17.5729 521.882 17.4062 522.548 17.4062C523.21 17.4062 523.728 17.5521 524.103 17.8438C524.478 18.1354 524.772 18.4896 524.986 18.9062H525.08V17.5156H527.048V26.1406C527.048 26.8438 526.879 27.4349 526.541 27.9141C526.207 28.3984 525.741 28.7604 525.142 29C524.543 29.2396 523.856 29.3594 523.08 29.3594ZM521.064 21.7188C521.064 22.5156 521.239 23.1484 521.588 23.6172C521.936 24.0807 522.434 24.3125 523.08 24.3125C523.72 24.3125 524.215 24.0859 524.564 23.6328C524.918 23.1745 525.095 22.5365 525.095 21.7188C525.095 21.1771 525.017 20.7057 524.861 20.3047C524.705 19.8984 524.476 19.5859 524.173 19.3672C523.871 19.1432 523.507 19.0312 523.08 19.0312C522.647 19.0312 522.28 19.1484 521.978 19.3828C521.676 19.612 521.447 19.9297 521.291 20.3359C521.14 20.737 521.064 21.1979 521.064 21.7188ZM535.977 17.5156H537.961V26H536.039V24.5H535.945C535.742 24.9896 535.419 25.3802 534.977 25.6719C534.539 25.9635 534.013 26.1094 533.398 26.1094C532.836 26.1094 532.341 25.9844 531.914 25.7344C531.487 25.4844 531.154 25.1198 530.914 24.6406C530.674 24.1615 530.555 23.5885 530.555 22.9219V17.5156H532.555V22.6094C532.555 22.9635 532.62 23.276 532.75 23.5469C532.885 23.8125 533.073 24.0182 533.312 24.1641C533.557 24.3047 533.841 24.375 534.164 24.375C534.466 24.375 534.755 24.3021 535.031 24.1562C535.312 24.0052 535.539 23.7839 535.711 23.4922C535.888 23.2005 535.977 22.849 535.977 22.4375V17.5156ZM545.233 26.1719C544.389 26.1719 543.657 25.9948 543.037 25.6406C542.418 25.2812 541.941 24.7734 541.608 24.1172C541.274 23.4609 541.108 22.6927 541.108 21.8125C541.108 20.9427 541.274 20.1771 541.608 19.5156C541.941 18.849 542.41 18.3307 543.014 17.9609C543.623 17.5911 544.327 17.4062 545.123 17.4062C545.842 17.4062 546.493 17.5625 547.077 17.875C547.665 18.1823 548.131 18.6562 548.475 19.2969C548.824 19.9375 548.998 20.7344 548.998 21.6875V22.3125H543.077C543.087 22.7865 543.181 23.1979 543.358 23.5469C543.54 23.8906 543.79 24.1536 544.108 24.3359C544.431 24.5182 544.806 24.6094 545.233 24.6094C545.66 24.6094 546.022 24.5312 546.319 24.375C546.616 24.2135 546.832 24 546.967 23.7344H548.92C548.801 24.224 548.574 24.6536 548.241 25.0234C547.907 25.388 547.483 25.6719 546.967 25.875C546.457 26.0729 545.879 26.1719 545.233 26.1719ZM547.092 20.9531C547.092 20.5729 547.009 20.2318 546.842 19.9297C546.681 19.6224 546.452 19.3828 546.155 19.2109C545.863 19.0391 545.53 18.9531 545.155 18.9531C544.769 18.9531 544.423 19.0443 544.116 19.2266C543.808 19.4036 543.566 19.6458 543.389 19.9531C543.212 20.2604 543.11 20.5938 543.084 20.9531H547.092Z" fill="#858C8E"/>
</svg>
