<svg width="1920" height="1080" viewBox="0 0 1920 1080" fill="none" xmlns="http://www.w3.org/2000/svg">
<rect width="1920" height="1080" fill="url(#paint0_radial_38_231)"/>
<path d="M933.916 599.854H879.115L947.352 519.642C952.316 513.803 953.435 505.536 950.205 498.587C946.974 491.638 939.932 487.151 932.257 487.151H836.292C825.386 487.151 816.51 496.004 816.51 506.881C816.51 517.759 825.386 526.611 836.292 526.611H889.556L821.319 606.823C816.355 612.662 815.235 620.929 818.466 627.878C821.697 634.827 828.738 639.314 836.414 639.314H933.923C944.829 639.314 953.705 630.461 953.705 619.584C953.705 608.706 944.829 599.854 933.923 599.854H933.916Z" fill="white"/>
<path d="M1094.16 609.809L1055.43 560.645L1093.59 514.508C1100.59 506.04 1099.31 493.525 1090.72 486.618C1082.14 479.711 1069.46 480.975 1062.46 489.443L1030.14 528.524L999.655 489.814C992.861 481.184 980.211 479.617 971.465 486.327C967.225 489.578 964.527 494.261 963.856 499.512C963.184 504.763 964.636 509.96 967.924 514.143L1004.07 560.043L963.212 609.444C956.205 617.912 957.493 630.428 966.075 637.335C969.65 640.213 974.156 641.802 978.766 641.802C984.834 641.802 990.505 639.146 994.34 634.51L1029.37 592.164L1062.42 634.145C1066.26 639.011 1072.05 641.808 1078.3 641.808C1082.8 641.808 1087.06 640.369 1090.61 637.639C1094.85 634.388 1097.55 629.705 1098.22 624.454C1098.9 619.203 1097.44 614.006 1094.16 609.823V609.809Z" fill="white"/>
<path d="M896.877 405.468C909.995 382.749 933.49 369.18 959.726 369.18C985.961 369.18 1009.46 382.741 1022.57 405.468L1052.48 457.274L1073.79 415.393L1056.5 385.878C1036.3 350.889 1000.12 330 959.726 330C919.327 330 883.15 350.889 862.95 385.878L833.546 436.813L878.729 436.797L896.885 405.468" fill="white"/>
<path d="M846.117 711.101C819.882 711.101 796.387 697.54 783.269 674.813C770.151 652.094 770.151 624.963 783.269 602.244L808.634 558.312L763.086 558.589L749.342 582.655C729.143 617.644 729.143 659.414 749.342 694.403C769.542 729.392 805.718 750.281 846.117 750.281L929.411 750.622L901.702 711.101H846.117Z" fill="white"/>
<path d="M1144.34 538.018L1121.91 577.515L1136.18 602.245C1149.3 624.964 1149.3 652.095 1136.18 674.814C1123.06 697.533 1099.57 711.102 1073.33 711.102H1018.45L1046.45 750.155L1073.33 750.282C1113.73 750.282 1149.91 729.393 1170.11 694.404C1190.31 659.415 1190.31 617.645 1170.11 582.656L1144.33 538.018H1144.34Z" fill="white"/>
<defs>
<radialGradient id="paint0_radial_38_231" cx="0" cy="0" r="1" gradientUnits="userSpaceOnUse" gradientTransform="translate(-120 1080) rotate(-22.4804) scale(2471.44 1829.31)">
<stop offset="0.306255" stop-color="#117079"/>
<stop offset="0.463464" stop-color="#008995"/>
<stop offset="1" stop-color="#14F18D"/>
</radialGradient>
</defs>
</svg>
