<svg width="180" height="111" viewBox="0 0 180 111" fill="none" xmlns="http://www.w3.org/2000/svg">
<path d="M85.6969 45.3248H76.0162L88.0709 31.1177C88.948 30.0831 89.1462 28.62 88.5755 27.389C88.0049 26.1579 86.7603 25.3638 85.4039 25.3638H68.4505C66.5235 25.3638 64.9555 26.9318 64.9555 28.8588C64.9555 30.7858 66.5235 32.3538 68.4505 32.3538H77.8602L65.8055 46.5609C64.9284 47.5955 64.7303 49.0586 65.3009 50.2896C65.8716 51.5207 67.1162 52.3149 68.4725 52.3149H85.6969C87.6239 52.3149 89.1919 50.7468 89.1919 48.8198C89.1919 46.8928 87.6239 45.3248 85.6969 45.3248Z" fill="white"/>
<path d="M113.31 47.2722L106.574 38.604L113.211 30.4709C114.429 28.9774 114.207 26.771 112.714 25.5535C111.22 24.336 109.014 24.5595 107.796 26.0513L102.173 32.9415L96.8693 26.1174C95.6874 24.5951 93.4861 24.3191 91.9655 25.5027C91.2289 26.0751 90.7581 26.9014 90.6413 27.8276C90.5245 28.7539 90.7768 29.67 91.3491 30.4066L97.6381 38.499L90.5295 47.2095C89.312 48.7031 89.5339 50.9095 91.0274 52.127C91.6488 52.635 92.4345 52.9144 93.2354 52.9144C94.2904 52.9144 95.2776 52.4453 95.9447 51.6291L102.037 44.1632L107.788 51.5648C108.455 52.4233 109.461 52.9161 110.55 52.9161C111.332 52.9161 112.074 52.6621 112.692 52.1812C113.428 51.6088 113.899 50.7825 114.014 49.8562C114.131 48.93 113.879 48.0139 113.306 47.2773L113.31 47.2722Z" fill="white"/>
<path d="M118.109 26.1565L124.946 37.9997C126.831 41.2644 127.823 44.9694 127.823 48.7405C127.823 60.604 118.207 70.2204 106.344 70.2204H100.685L95.1728 60.6734H106.344C112.934 60.6734 118.276 55.3309 118.276 48.7405C118.276 46.6458 117.724 44.5884 116.678 42.7732L112.595 35.7035L118.107 26.1565H118.109Z" fill="white"/>
<path d="M64.1343 22.5867L70.9719 10.7436C72.8565 7.47881 75.5692 4.76609 78.8339 2.88141C89.1073 -3.05033 102.244 0.470109 108.176 10.7436L111.005 15.6458L105.493 25.1928L99.9072 15.5171C96.612 9.80884 89.3138 7.85304 83.6057 11.15C81.7921 12.1981 80.2851 13.7035 79.2386 15.5171L75.1561 22.5867H64.1326H64.1343Z" fill="white"/>
<path d="M87.3361 70.2204H73.6609C69.8899 70.2204 66.1867 69.2281 62.9202 67.3434C52.6469 61.4116 49.1265 48.2748 55.0582 38.0013L57.8877 33.0991H68.9112L63.325 42.7748C60.0298 48.4831 61.9855 55.7813 67.692 59.0765C69.5055 60.1247 71.5646 60.675 73.6592 60.675H81.8227L87.3344 70.2221L87.3361 70.2204Z" fill="white"/>
<path d="M17.4744 92.7291V89.9149H0.370354V93.9077H11.0122L0.385251 107.898V110.712H17.4893V106.72H6.84749L17.4744 92.7291Z" fill="white"/>
<path d="M20.6757 110.712H35.7504V106.72H25.7856V102.295H34.9691V98.3165H25.7856V93.9077H35.7504V89.9149H20.6757V110.712Z" fill="white"/>
<path d="M156.934 89.9149H151.824V110.714H156.934V89.9149Z" fill="white"/>
<path d="M172.851 100.313L179.419 89.9149H173.677L169.589 96.5938H169.408L165.351 89.9149H159.564L166.162 100.313L159.414 110.712H165.245L169.408 103.991H169.589L173.737 110.712H179.63L172.851 100.313Z" fill="white"/>
<path d="M52.05 102.755C53.2667 102.229 54.1986 101.458 54.8458 100.443C55.4914 99.427 55.8158 98.2215 55.8158 96.8231C55.8158 95.4247 55.498 94.1924 54.8607 93.1531C54.2251 92.1138 53.313 91.3149 52.1245 90.7549C50.9377 90.1949 49.5274 89.9149 47.8936 89.9149H38.9964V110.714H44.1063V103.546H46.9468L50.9294 110.714H56.5657L52.0235 102.766C52.0235 102.766 52.0401 102.76 52.0484 102.757L52.05 102.755ZM44.108 93.8792H46.8127C47.6238 93.8792 48.3025 93.9899 48.8487 94.2098C49.395 94.4297 49.8071 94.7556 50.0885 95.1858C50.3683 95.6161 50.509 96.1619 50.509 96.8231C50.509 97.4844 50.3683 97.9937 50.0885 98.4098C49.8071 98.8258 49.3999 99.1375 48.8636 99.3431C48.3273 99.5488 47.6486 99.6516 46.8276 99.6516H44.108V93.8792Z" fill="white"/>
<path d="M73.2196 90.8767C71.657 90.043 69.8875 89.627 67.9144 89.627C65.9413 89.627 64.185 90.043 62.6158 90.8767C61.0482 91.7103 59.8151 92.93 58.9179 94.5388C58.0207 96.1476 57.5721 98.0728 57.5721 100.313C57.5721 102.553 58.0207 104.426 58.9179 106.044C59.8151 107.662 61.0466 108.893 62.6158 109.736C64.1834 110.579 65.9495 111 67.9144 111C69.8792 111 71.657 110.579 73.2196 109.736C74.7822 108.893 76.0153 107.667 76.9175 106.06C77.8196 104.451 78.2698 102.535 78.2698 100.314C78.2698 98.0933 77.8196 96.1492 76.9175 94.5404C76.0153 92.9316 74.7838 91.7103 73.2196 90.8782V90.8767ZM72.43 103.796C72.0244 104.748 71.4385 105.471 70.6721 105.965C69.9057 106.459 68.9853 106.705 67.9144 106.705C66.8434 106.705 65.938 106.459 65.1716 105.965C64.4052 105.471 63.8192 104.748 63.4136 103.796C63.0081 102.844 62.8045 101.683 62.8045 100.313C62.8045 98.9428 63.0081 97.7833 63.4136 96.8294C63.8192 95.8771 64.4052 95.1542 65.1716 94.6606C65.938 94.167 66.8517 93.9203 67.9144 93.9203C68.9771 93.9203 69.9057 94.167 70.6721 94.6606C71.4385 95.1542 72.0244 95.8771 72.43 96.8294C72.8355 97.7817 73.0391 98.9428 73.0391 100.313C73.0391 101.683 72.8355 102.844 72.43 103.796Z" fill="white"/>
<path d="M93.8096 102.108H93.6143L84.8976 89.9149H80.463V110.712H85.5729V98.5031H85.7384L94.5462 110.712H98.9046V89.9149H93.8096V102.108Z" fill="white"/>
<path d="M116.595 90.8767C115.032 90.043 113.263 89.627 111.289 89.627C109.316 89.627 107.56 90.043 105.991 90.8767C104.423 91.7103 103.19 92.93 102.293 94.5388C101.396 96.1476 100.947 98.0728 100.947 100.313C100.947 102.553 101.396 104.426 102.293 106.044C103.19 107.662 104.422 108.893 105.991 109.736C107.558 110.579 109.325 111 111.289 111C113.254 111 115.032 110.579 116.595 109.736C118.157 108.893 119.39 107.667 120.293 106.06C121.195 104.451 121.645 102.535 121.645 100.314C121.645 98.0933 121.195 96.1492 120.293 94.5404C119.39 92.9316 118.159 91.7103 116.595 90.8782V90.8767ZM115.805 103.796C115.4 104.748 114.814 105.471 114.047 105.965C113.281 106.459 112.36 106.705 111.289 106.705C110.219 106.705 109.313 106.459 108.547 105.965C107.78 105.471 107.194 104.748 106.789 103.796C106.383 102.844 106.18 101.683 106.18 100.313C106.18 98.9428 106.383 97.7833 106.789 96.8294C107.194 95.8771 107.78 95.1542 108.547 94.6606C109.313 94.167 110.227 93.9203 111.289 93.9203C112.352 93.9203 113.281 94.167 114.047 94.6606C114.814 95.1542 115.4 95.8771 115.805 96.8294C116.211 97.7817 116.414 98.9428 116.414 100.313C116.414 101.683 116.211 102.844 115.805 103.796Z" fill="white"/>
<path d="M136.552 102.999H136.298L130.661 89.9149H124.333V110.712H129.324V97.728H129.504L134.809 110.584H138.026L143.347 97.7707H143.528V110.712H148.517V89.9149H142.159L136.552 102.999Z" fill="white"/>
</svg>
