<svg width="165" height="84" viewBox="0 0 165 84" fill="none" xmlns="http://www.w3.org/2000/svg">
<path d="M79.1344 33.5024H72.3308L80.8025 23.5441C81.4188 22.8192 81.5578 21.7928 81.1567 20.9301C80.7556 20.0674 79.8814 19.5104 78.9284 19.5104H67.0144C65.6604 19.5104 64.5584 20.6094 64.5584 21.9599C64.5584 23.3103 65.6604 24.4093 67.0144 24.4093H73.6271L65.1555 34.3676C64.5392 35.0925 64.4002 36.1189 64.8013 36.9816C65.2024 37.8443 66.0766 38.4013 67.0295 38.4013H79.1353C80.4893 38.4013 81.5913 37.3023 81.5913 35.9519C81.5913 34.6014 80.4893 33.5024 79.1353 33.5024H79.1344Z" fill="white"/>
<path d="M99.0282 34.7383L94.2206 28.6346L98.9576 22.9067C99.8275 21.8554 99.6676 20.3016 98.6022 19.4441C97.5368 18.5866 95.962 18.7435 95.093 19.7948L91.0805 24.6468L87.2959 19.841C86.4524 18.7696 84.8819 18.5749 83.7961 19.408C83.2697 19.8116 82.9347 20.393 82.8514 21.0449C82.7681 21.6968 82.9483 22.342 83.3565 22.8614L87.8443 28.5599L82.7715 34.693C81.9016 35.7443 82.0615 37.2981 83.1269 38.1556C83.5707 38.513 84.1302 38.7102 84.7025 38.7102C85.4558 38.7102 86.1599 38.3805 86.636 37.8049L90.9844 32.5477L95.0888 37.7596C95.565 38.3637 96.2835 38.711 97.0598 38.711C97.6184 38.711 98.1473 38.5323 98.5886 38.1934C99.1149 37.7898 99.4499 37.2084 99.5333 36.5565C99.6166 35.9046 99.4363 35.2594 99.0282 34.74V34.7383Z" fill="white"/>
<path d="M74.5361 9.36934C76.1646 6.54881 79.0815 4.86415 82.3387 4.86415C85.5958 4.86415 88.5127 6.54782 90.1413 9.36934L93.8548 15.8011L96.4992 10.6016L94.3534 6.93727C91.8456 2.59336 87.3542 0 82.3387 0C77.3231 0 72.8318 2.59336 70.324 6.93727L66.6735 13.2609L72.283 13.2589L74.537 9.36934" fill="white"/>
<path d="M68.2342 47.3139C64.9771 47.3139 62.0602 45.6302 60.4316 42.8087C58.803 39.9882 58.803 36.6199 60.4316 33.7993L63.5806 28.3451L57.9258 28.3795L56.2195 31.3672C53.7118 35.7111 53.7118 40.8969 56.2195 45.2408C58.7273 49.5847 63.2187 52.1781 68.2342 52.1781L78.5751 52.2203L75.135 47.3139H68.2342Z" fill="white"/>
<path d="M105.259 25.8254L102.474 30.7289L104.246 33.7993C105.874 36.6198 105.874 39.9881 104.246 42.8087C102.617 45.6292 99.7004 47.3139 96.4432 47.3139H89.6299L93.1054 52.1623L96.4432 52.178C101.459 52.178 105.95 49.5846 108.458 45.2407C110.966 40.8968 110.966 35.7111 108.458 31.3672L105.258 25.8254H105.259Z" fill="white"/>
<path d="M30.8713 70.4217V68.4246H18.7335V71.258H26.2854L18.7441 81.1862V83.1833H30.8819V80.3499H23.33L30.8713 70.4217Z" fill="white"/>
<path d="M33.1431 83.1833H43.8408V80.3499H36.7693V77.21H43.2864V74.3867H36.7693V71.258H43.8408V68.4246H33.1431V83.1833Z" fill="white"/>
<path d="M129.838 68.4246H126.212V83.1844H129.838V68.4246Z" fill="white"/>
<path d="M141.134 75.8034L145.795 68.4246H141.72L138.818 73.1642H138.69L135.811 68.4246H131.705L136.387 75.8034L131.598 83.1833H135.736L138.69 78.4134H138.818L141.762 83.1833H145.944L141.134 75.8034Z" fill="white"/>
<path d="M55.4077 77.5367C56.2711 77.1628 56.9325 76.6161 57.3918 75.8954C57.8499 75.1747 58.0801 74.3193 58.0801 73.3269C58.0801 72.3346 57.8546 71.4601 57.4023 70.7225C56.9513 69.985 56.304 69.4181 55.4606 69.0207C54.6184 68.6233 53.6176 68.4246 52.4582 68.4246H46.1443V83.1844H49.7705V78.098H51.7862L54.6125 83.1844H58.6122L55.3889 77.5445C55.3889 77.5445 55.4007 77.54 55.4066 77.5378L55.4077 77.5367ZM49.7717 71.2378H51.6911C52.2667 71.2378 52.7483 71.3164 53.1359 71.4724C53.5236 71.6284 53.8161 71.8597 54.0158 72.165C54.2143 72.4704 54.3141 72.8577 54.3141 73.3269C54.3141 73.7962 54.2143 74.1577 54.0158 74.4529C53.8161 74.7481 53.5271 74.9693 53.1465 75.1152C52.7659 75.2612 52.2843 75.3341 51.7017 75.3341H49.7717V71.2378Z" fill="white"/>
<path d="M70.4305 69.1071C69.3217 68.5155 68.0659 68.2202 66.6657 68.2202C65.2655 68.2202 64.0192 68.5155 62.9056 69.1071C61.7932 69.6987 60.9181 70.5642 60.2814 71.7059C59.6448 72.8476 59.3264 74.2138 59.3264 75.8033C59.3264 77.3929 59.6448 78.7221 60.2814 79.8705C60.9181 81.0189 61.7921 81.8923 62.9056 82.4906C64.018 83.089 65.2714 83.3876 66.6657 83.3876C68.0601 83.3876 69.3217 83.089 70.4305 82.4906C71.5394 81.8923 72.4146 81.0223 73.0547 79.8817C73.6949 78.7401 74.0144 77.3806 74.0144 75.8045C74.0144 74.2283 73.6949 72.8487 73.0547 71.707C72.4146 70.5653 71.5406 69.6987 70.4305 69.1082V69.1071ZM69.8702 78.2753C69.5824 78.9511 69.1666 79.4641 68.6227 79.8144C68.0789 80.1646 67.4257 80.3398 66.6657 80.3398C65.9057 80.3398 65.2632 80.1646 64.7193 79.8144C64.1755 79.4641 63.7596 78.9511 63.4718 78.2753C63.184 77.5995 63.0395 76.7755 63.0395 75.8033C63.0395 74.8312 63.184 74.0083 63.4718 73.3314C63.7596 72.6556 64.1755 72.1426 64.7193 71.7923C65.2632 71.4421 65.9116 71.2669 66.6657 71.2669C67.4199 71.2669 68.0789 71.4421 68.6227 71.7923C69.1666 72.1426 69.5824 72.6556 69.8702 73.3314C70.158 74.0072 70.3025 74.8312 70.3025 75.8033C70.3025 76.7755 70.158 77.5995 69.8702 78.2753Z" fill="white"/>
<path d="M85.0422 77.0775H84.9036L78.7178 68.4246H75.5709V83.1833H79.1971V74.5191H79.3145L85.5649 83.1833H88.6578V68.4246H85.0422V77.0775Z" fill="white"/>
<path d="M101.211 69.1071C100.103 68.5155 98.8469 68.2202 97.4467 68.2202C96.0465 68.2202 94.8002 68.5155 93.6866 69.1071C92.5742 69.6987 91.699 70.5642 91.0624 71.7059C90.4257 72.8476 90.1074 74.2138 90.1074 75.8033C90.1074 77.3929 90.4257 78.7221 91.0624 79.8705C91.699 81.0189 92.573 81.8923 93.6866 82.4907C94.799 83.089 96.0523 83.3876 97.4467 83.3876C98.841 83.3876 100.103 83.089 101.211 82.4907C102.32 81.8923 103.195 81.0223 103.836 79.8817C104.476 78.7401 104.795 77.3806 104.795 75.8045C104.795 74.2283 104.476 72.8487 103.836 71.707C103.195 70.5653 102.322 69.6987 101.211 69.1082V69.1071ZM100.651 78.2753C100.363 78.9511 99.9475 79.4641 99.4037 79.8144C98.8598 80.1646 98.2067 80.3398 97.4467 80.3398C96.6867 80.3398 96.0441 80.1646 95.5003 79.8144C94.9564 79.4641 94.5406 78.9511 94.2528 78.2753C93.965 77.5995 93.8205 76.7755 93.8205 75.8033C93.8205 74.8312 93.965 74.0083 94.2528 73.3314C94.5406 72.6556 94.9564 72.1426 95.5003 71.7923C96.0441 71.4421 96.6925 71.2669 97.4467 71.2669C98.2008 71.2669 98.8598 71.4421 99.4037 71.7923C99.9475 72.1426 100.363 72.6556 100.651 73.3314C100.939 74.0072 101.083 74.8312 101.083 75.8033C101.083 76.7755 100.939 77.5995 100.651 78.2753Z" fill="white"/>
<path d="M115.374 77.7095H115.193L111.194 68.4246H106.703V83.1833H110.245V73.9691H110.373L114.137 83.0924H116.42L120.196 73.9994H120.324V83.1833H123.865V68.4246H119.353L115.374 77.7095Z" fill="white"/>
</svg>
